<svg width="483" height="940" viewBox="0 0 483 940" fill="none" xmlns="http://www.w3.org/2000/svg">
<path d="M469.7 660.55C469.7 661.16 469.7 661.79 469.62 662.43C469.62 663.43 469.53 664.37 469.45 665.34V665.44C469.36 666.85 469.23 668.26 469.09 669.69C468.89 671.57 468.67 673.44 468.41 675.33C468.29 676.18 468.16 677.01 468.04 677.86C467.36 682.16 466.54 686.52 465.59 690.86L464.93 693.78C464.57 695.29 464.2 696.78 463.81 698.35C463.57 699.35 463.3 700.35 463.03 701.35C462.72 702.52 462.4 703.69 462.09 704.88C461.78 706.07 461.45 707.21 461.09 708.38C460.73 709.55 460.44 710.71 460.09 711.93C459.41 714.24 458.73 716.55 458.03 718.83C457.08 721.83 456.13 724.83 455.16 727.83C452.799 735.237 451.05 742.826 449.93 750.52C448.84 757.71 448.77 765.12 447.26 772.23C445.63 779.82 443.59 787.51 441.2 794.92C436.287 810.157 429.48 824.718 420.94 838.26L420.69 838.66C419.84 839.99 418.98 841.31 418.09 842.66C390.07 884.638 346.683 913.931 297.274 924.229C247.865 934.528 196.388 925.008 153.93 897.72C153.93 897.72 153.88 897.72 153.86 897.72C121.247 876.691 95.7304 846.32 80.64 810.57C80.64 810.57 80.64 810.57 80.64 810.5C79.81 809.09 78.99 807.68 78.18 806.22C77.37 804.76 76.55 803.3 75.8 801.8C75.8 801.8 75.8 801.72 75.73 801.67C74.95 800.22 74.22 798.73 73.49 797.23C71.98 794.11 70.49 790.91 69.16 787.6C68.56 786.16 67.97 784.71 67.41 783.2C64.9327 776.814 62.816 770.293 61.07 763.67C60.75 762.43 60.43 761.19 60.14 759.95C58.1298 751.555 56.6767 743.036 55.79 734.45C55.67 733.21 55.55 731.97 55.45 730.73C55.23 728.3 55.06 725.79 54.94 723.26C54.94 723.05 54.94 722.8 54.94 722.58C54.86 721.2 54.81 719.81 54.79 718.4C54.79 718.18 54.79 717.99 54.79 717.77C54.79 716.07 54.71 714.37 54.71 712.64C54.71 708.31 54.83 703.87 55.08 699.29C55.7188 688.263 57.0548 677.288 59.08 666.43C59.54 663.83 60.08 661.23 60.64 658.58C61.34 656.44 84.07 580.13 57.04 528.86C68.9 539.97 77.87 558.47 79.84 588.34L79.96 590.12L80.5 591.8C81.1574 593.741 81.9528 595.632 82.88 597.46C83.15 597.92 83.39 598.38 83.66 598.87C83.93 599.36 84.22 599.82 84.53 600.3C85.156 601.315 85.8545 602.285 86.62 603.2C87.2054 603.93 87.8297 604.627 88.49 605.29C88.7054 605.515 88.9359 605.726 89.18 605.92C90.1382 606.819 91.1871 607.617 92.31 608.3C92.5419 608.465 92.7859 608.612 93.04 608.74C93.941 609.228 94.8768 609.649 95.84 610C96.4752 610.219 97.123 610.399 97.78 610.54C98.24 610.66 98.78 610.73 99.24 610.81L100.48 610.93C100.89 610.93 101.31 610.93 101.74 610.93C116.14 610.93 122.14 595.03 124.13 589.8L124.6 588.37C124.6 588.37 124.6 588.37 124.6 588.27C124.625 588.144 124.659 588.021 124.7 587.9C124.77 587.52 124.92 586.9 125.06 586.18C125.06 585.86 125.18 585.52 125.26 585.18C125.47 584.08 125.69 582.72 125.91 581.12C125.99 580.63 126.06 580.12 126.11 579.59C126.23 578.76 126.33 577.84 126.42 576.91C126.42 576.62 126.42 576.35 126.5 576.06C126.59 575.06 126.67 574.14 126.74 573.12V572.88C126.81 571.88 126.86 570.71 126.91 569.57C126.91 569.28 126.91 568.96 126.91 568.65C126.91 567.43 126.91 566.19 126.91 564.9C126.91 564.66 126.91 564.42 126.91 564.17C126.91 562.45 126.91 560.67 126.74 558.78C126.57 555.3 126.2 551.58 125.62 547.72C125.16 544.48 124.53 541.15 123.7 537.72C123.36 536.33 123.02 534.95 122.63 533.54C121.644 529.897 120.466 526.308 119.1 522.79C118.54 521.33 117.96 519.88 117.33 518.42C116.99 517.66 116.67 516.91 116.33 516.18C115.68 514.72 114.97 513.24 114.19 511.76C112.238 507.905 110.071 504.162 107.7 500.55C88.7 468.17 61.78 406.83 72.06 382.45C75.78 373.85 82.95 365.31 86.5 365.31C87.91 365.31 91.66 367.26 96.81 374.62C98.61 377.08 104.62 384.3 113.81 384.3C116.92 384.3 127.38 383.2 131.65 369.3C132.36 367.21 148.16 319.3 139.75 276.59C145.34 289.93 150.45 304.93 150.93 315.59L166.93 315.76C171.119 332.828 177.53 349.271 186 364.67C187.87 368.12 190 371.42 192.18 374.73C194.146 377.59 195.962 380.551 197.62 383.6C205.491 398.584 211.134 414.636 214.37 431.25C214.68 433.156 214.874 435.08 214.95 437.01C215.76 447.39 217.07 464.73 232.68 471.01C235.24 472.066 237.981 472.613 240.75 472.62C253.7 472.62 262.09 461.19 264.67 449.86C266.157 442.807 266.828 435.606 266.67 428.4C266.67 426.31 266.91 369.3 232.22 307.14C229.86 301.26 211.63 252.98 226.58 209.48C229.93 201.48 237.35 192.15 240.68 192.15C241.38 192.15 243.57 193.1 246.76 196.7L259.23 210.82L269.06 194.67C272.313 188.966 275.08 182.999 277.33 176.83C275.622 193.21 272.368 209.393 267.61 225.16C251.2 280.73 249.61 329.57 263.01 370.39L263.81 372.84C267.24 383.61 272.47 399.9 287.39 406.61C291.018 408.265 294.952 409.144 298.94 409.19C312.6 409.19 323.4 398 326.41 380.67C326.58 380.16 333.19 352.81 326.51 314.67C329.22 319.713 332.455 324.456 336.16 328.82L338.42 331.52L341.73 332.81C344.693 333.907 347.83 334.459 350.99 334.44C357.48 334.44 373.11 331.96 379.99 309.44C383.66 301.91 398.63 267.44 391.36 218.91L391.19 217.82L390.85 216.75C390.78 216.48 387.3 205.49 383.97 189.75C384.58 191.84 386.26 197.09 386.26 197.09L386.62 197.87C386.94 198.5 416.16 261.39 403.62 305.64C398.34 324.31 390.1 343.88 379.16 363.76C376.61 368.4 373.67 372.83 370.75 377.25C365.75 384.84 360.61 392.67 356.75 401.76C352.579 411.569 349.205 421.699 346.66 432.05C341.53 452.95 336.04 491.34 356.87 513.63C362.66 519.83 368.78 521.14 372.92 521.14C377.92 521.14 387.53 519.14 394.84 505.61C401.36 493.61 401.72 480.61 401.43 471.92C401.271 467.346 400.88 462.784 400.26 458.25C400.97 459.52 401.7 460.76 402.45 461.95C414.27 480.95 423.09 504.95 428.71 533.23C432.43 552.02 430.82 570.3 424.09 586.1C423.8 586.78 423.51 587.46 423.24 588.1C422.97 588.74 422.75 589.34 422.53 589.95C422.31 590.56 422 591.39 421.75 592.09C421.44 593.01 421.12 593.94 420.86 594.86C420.6 595.78 420.27 596.73 420.03 597.66C419.86 598.29 419.69 598.92 419.54 599.55C419.39 600.18 419.23 600.84 419.11 601.47C418.67 603.423 418.337 605.346 418.11 607.24C417.99 608.11 417.87 608.99 417.8 609.84C417.58 612.05 417.46 614.24 417.46 616.4C417.46 617.4 417.46 618.4 417.53 619.4C417.53 620.03 417.6 620.64 417.65 621.27C417.895 624.457 418.407 627.618 419.18 630.72C419.38 631.6 419.62 632.45 419.89 633.3C420.2 634.44 420.59 635.59 421.01 636.73C422.472 640.66 424.346 644.424 426.6 647.96C426.89 648.4 427.18 648.86 427.5 649.3C427.82 649.74 428.13 650.2 428.5 650.66C429.739 652.348 431.121 653.927 432.63 655.38C432.757 655.529 432.898 655.666 433.05 655.79C433.63 656.35 434.26 656.86 434.89 657.37C435.271 657.681 435.668 657.971 436.08 658.24C436.129 658.296 436.191 658.341 436.26 658.37C437.286 659.102 438.374 659.744 439.51 660.29C440.18 660.639 440.871 660.947 441.58 661.21C441.9 661.33 442.21 661.43 442.53 661.53C442.85 661.63 442.99 661.67 443.21 661.74C443.43 661.81 443.89 661.94 444.21 662.01C445.145 662.235 446.094 662.399 447.05 662.5L447.88 662.57C448.34 662.57 448.83 662.57 449.31 662.57C453.565 662.546 457.726 661.315 461.31 659.02C464.415 657.124 467.211 654.764 469.6 652.02C469.77 654.89 469.79 657.67 469.7 660.55Z" fill="#FFE8CC"/>
<path d="M258 918.56C223.29 918.608 189.288 908.737 160 890.11L156.74 887.98C131.298 871.329 110.597 848.379 96.6497 821.36C91.8297 811.89 86.7496 802.51 82.1296 792.94C80.5696 789.74 79.2396 786.77 78.0296 783.85C77.4496 782.46 76.9197 781.14 76.4097 779.77C74.0642 773.683 72.061 767.47 70.4097 761.16C70.1297 760.04 69.8297 758.86 69.5497 757.68C67.6302 749.684 66.2438 741.569 65.3997 733.39C65.2797 732.17 65.1696 731.06 65.0896 729.94C64.8696 727.56 64.7096 725.24 64.5996 722.94C64.5996 722.77 64.5996 722.17 64.5996 722.17V722.08C64.5296 720.8 64.4896 719.53 64.4596 718.23V717.79V717.49C64.4596 715.88 64.3896 714.27 64.3896 712.64C64.3896 708.52 64.4996 704.2 64.7396 699.81C65.3685 689.2 66.6577 678.639 68.5996 668.19C69.0296 665.77 69.5196 663.4 70.0196 660.99C74.8041 644.22 77.906 627.015 79.2796 609.63C80.0096 610.52 80.7697 611.35 81.5797 612.17C81.9697 612.55 82.3397 612.9 82.7297 613.24C84.0572 614.452 85.4932 615.54 87.0196 616.49C87.49 616.809 87.9811 617.096 88.4896 617.35C89.7449 618.024 91.0446 618.612 92.3796 619.11L92.6197 619.19C93.571 619.526 94.543 619.799 95.5296 620.01C96.2819 620.189 97.0429 620.329 97.8096 620.43H98.0896C98.7496 620.51 99.3196 620.56 99.8796 620.6C100.44 620.64 101.07 620.66 101.7 620.66C115.7 620.66 126.25 611.47 133.16 593.33L133.35 592.79L133.7 591.71L134.29 590.3C134.29 590.3 134.29 589.43 134.29 589.38C134.37 589 134.47 588.55 134.57 588.04L134.71 587.3C135 585.82 135.26 584.3 135.51 582.43C135.58 581.95 135.66 581.36 135.72 580.74C135.85 579.86 135.95 578.89 136.05 577.92L136.15 576.84C136.24 576 136.32 574.93 136.4 573.84V573.49V573.22C136.47 572.22 136.52 571.12 136.56 570.02V569.59C136.56 569.25 136.56 568.96 136.56 568.67C136.56 567.52 136.56 566.25 136.56 564.92C136.56 564.57 136.56 564.21 136.56 563.85C136.56 561.97 136.5 560.17 136.38 558.32C136.175 554.302 135.768 550.297 135.16 546.32C134.67 542.83 133.96 539.16 133.09 535.5C132.68 533.86 132.33 532.44 131.93 530.99C130.859 527.039 129.58 523.147 128.1 519.33C127.5 517.76 126.87 516.17 126.18 514.59L125.75 513.59C125.53 513.08 125.31 512.59 125.08 512.09C124.3 510.36 123.52 508.74 122.73 507.25C120.663 503.192 118.383 499.247 115.9 495.43C93.1196 456.61 73.6596 403.54 80.9496 386.24C82.3887 383.009 84.2481 379.983 86.4797 377.24C87.1397 378.02 87.9096 379 88.7696 380.24C91.9096 384.52 100.34 394.06 113.71 394.06C123.55 394.06 135.83 388.34 140.81 372.29C145.611 357 148.89 341.274 150.6 325.34L159.28 325.43C163.668 340.693 169.735 355.423 177.37 369.35C179.31 372.93 181.48 376.27 183.57 379.5L183.92 380.04C185.722 382.657 187.391 385.364 188.92 388.15C196.352 402.3 201.678 417.46 204.73 433.15C204.939 434.562 205.076 435.984 205.14 437.41V437.72C206 448.81 207.76 471.56 228.93 480.1C232.646 481.621 236.624 482.406 240.64 482.41C258.95 482.41 270.64 467.18 274.04 452.09C275.704 444.3 276.463 436.344 276.3 428.38C276.263 422.512 275.912 416.65 275.25 410.82C277.728 412.703 280.412 414.3 283.25 415.58C288.129 417.798 293.42 418.966 298.78 419.01C317.14 419.01 332.03 404.31 335.83 382.44L335.64 383.2C336.41 379.97 339.64 364.74 338.95 342.33C342.77 343.654 346.786 344.33 350.83 344.33C357.47 344.33 379.71 342.07 388.92 313.17C391.744 307.122 394.101 300.867 395.97 294.46C395.541 297.383 394.926 300.275 394.13 303.12C389.06 321.12 381.13 339.94 370.51 359.21C368.26 363.31 365.65 367.26 362.89 371.45L362.5 372.04C357.23 380.04 351.85 388.25 347.68 398.11C343.31 408.396 339.775 419.017 337.11 429.87C331.51 452.68 325.7 494.78 349.66 520.41C357.83 529.17 366.76 531.01 372.81 531.01C378.61 531.01 393.2 529.01 403.29 510.38C405.541 506.197 407.299 501.768 408.53 497.18C413.036 509.576 416.557 522.309 419.06 535.26C422.39 552.11 421 568.42 415.06 582.43C414.74 583.19 414.41 583.96 414.11 584.73C413.81 585.5 413.56 586.13 413.3 586.84L413.14 587.29C412.91 587.9 412.69 588.5 412.48 589.1C412.13 590.1 411.79 591.1 411.48 592.1C411.17 593.1 410.82 594.26 410.53 595.33C410.35 596.01 410.15 596.75 409.98 597.48L409.82 598.19C409.7 598.67 409.59 599.14 409.5 599.61C409.01 601.8 408.62 604 408.35 606.14C408.22 607.08 408.08 608.14 407.99 609.14C407.74 611.6 407.61 614.14 407.61 616.53C407.61 617.68 407.61 618.81 407.7 619.97C407.7 620.6 407.77 621.28 407.83 621.97C408.107 625.706 408.699 629.413 409.6 633.05C409.84 634.05 410.13 635.11 410.44 636.13C410.78 637.32 411.18 638.55 411.74 640.13C413.457 644.746 415.66 649.168 418.31 653.32L418.61 653.78C418.87 654.18 419.14 654.58 419.41 654.97C419.68 655.36 420.14 655.97 420.52 656.52C422.027 658.557 423.7 660.466 425.52 662.23C425.8 662.53 426.09 662.81 426.39 663.09C427.12 663.76 427.89 664.4 428.66 665.02C429.02 665.31 429.39 665.59 429.76 665.87L430.69 666.77L431.57 667.11C432.684 667.847 433.843 668.515 435.04 669.11C436.014 669.604 437.015 670.041 438.04 670.42L439.28 670.85C439.58 670.95 439.88 671.05 440.18 671.13L440.45 671.21C441 671.37 441.55 671.52 442.1 671.64C443.384 671.942 444.687 672.159 446 672.29L447.32 672.4C447.98 672.4 448.61 672.46 449.25 672.46C452.602 672.467 455.935 671.937 459.12 670.89C459 671.95 458.86 673.02 458.71 674.09L458.35 676.6C457.74 680.45 456.95 684.66 456.01 688.95L455.37 691.79L455.19 692.56C454.9 693.74 454.62 694.93 454.32 696.11C454.07 697.11 453.82 698.11 453.57 698.99L452.62 702.55C452.33 703.71 452.02 704.74 451.72 705.77C451.37 707.06 451.06 708.13 450.72 709.21L450.29 710.61V710.69C449.75 712.51 449.21 714.33 448.65 716.13C447.73 719.06 446.79 722.02 445.83 724.98C440.03 742.84 439.83 761.63 435.36 779.75C431.498 795.511 425.531 810.681 417.62 824.85C415.973 827.817 414.23 830.736 412.39 833.61C411.61 834.84 410.82 836.06 409.98 837.29C393.301 862.306 370.7 882.815 344.186 896.993C317.672 911.171 288.066 918.579 258 918.56V918.56ZM244.32 308.97C243.273 306.97 242.19 304.97 241.07 302.97C238.27 295.81 222.42 252.1 235.71 212.97C237.041 209.977 238.72 207.151 240.71 204.55L257.81 223.92C249 254.17 244.51 282.6 244.32 308.97Z" fill="#FF8A00"/>
<path d="M258 908.83C225.512 908.869 193.673 899.731 166.15 882.47L159.83 878.3C134.59 861.66 114.93 837.12 101.83 810.12C99.0397 804.35 95.9197 798.76 93.0697 793.06L92.4797 791.87L92.3197 791.64C91.8297 790.64 91.3197 789.7 90.8697 788.71C89.4097 785.71 88.1497 782.9 87.0197 780.14C86.4497 778.81 86.0197 777.62 85.5197 776.39C83.3081 770.594 81.4251 764.678 79.8797 758.67C79.6197 757.67 79.3397 756.53 79.0697 755.42C77.2535 747.821 75.9373 740.111 75.1297 732.34C75.0297 731.27 74.9197 730.21 74.8397 729.16C74.6297 726.83 74.4897 724.67 74.3797 722.5V721.35V721.14C74.3797 720.14 74.2897 719.05 74.2797 717.99V716.99C74.2797 715.53 74.2197 714.06 74.2197 712.57C74.2197 708.57 74.3397 704.47 74.5597 700.26C75.1587 690.065 76.4012 679.918 78.2797 669.88C78.6697 667.63 79.1097 665.49 79.5697 663.32C82.9258 651.528 85.4685 639.52 87.1797 627.38C87.7897 627.64 88.4297 627.9 89.0797 628.14L89.3897 628.26C90.7179 628.727 92.0739 629.111 93.4497 629.41C94.4497 629.65 95.4497 629.83 96.5497 629.99L96.9597 630.04C97.9597 630.16 98.6997 630.23 99.4597 630.28C100.22 630.33 100.98 630.35 101.81 630.35C114.47 630.35 131.81 624.53 142.35 596.77L142.72 595.77L142.94 595.07L144.11 592.28V590.5L144.39 589.08C144.69 587.54 144.98 585.8 145.26 583.74C145.33 583.3 145.42 582.64 145.5 581.92C145.63 580.98 145.74 579.92 145.84 578.92L145.95 577.67C146.04 576.92 146.13 575.74 146.22 574.5L146.27 573.8V573.49C146.33 572.49 146.37 571.49 146.42 570.38V569.77C146.42 569.49 146.42 569.06 146.42 568.63C146.42 567.63 146.42 566.28 146.42 564.88C146.42 564.45 146.42 564 146.42 563.56C146.42 561.56 146.35 559.62 146.23 557.69C146.03 553.59 145.58 549.21 144.92 544.79C144.39 541.06 143.63 537.12 142.68 533.15C142.24 531.36 141.87 529.85 141.44 528.32C140.289 524.056 138.91 519.856 137.31 515.74C136.67 514.07 135.99 512.36 135.24 510.64L134.78 509.64C134.55 509.11 134.3 508.54 134.04 507.98C133.22 506.16 132.34 504.35 131.48 502.71C129.307 498.451 126.914 494.309 124.31 490.3C102.19 452.55 88.4497 410.73 89.2097 394.54C96.0777 400.423 104.806 403.686 113.85 403.75C126.54 403.75 143.68 396.25 150.24 375.14C153.015 366.384 155.272 357.472 157 348.45C160.48 357.175 164.487 365.681 169 373.92C171.11 377.81 173.37 381.31 175.56 384.69L175.93 385.25C177.61 387.79 179.28 390.31 180.48 392.59C187.468 405.891 192.478 420.142 195.35 434.89C195.44 435.38 195.54 436.96 195.61 437.89V438.22C196.54 450.28 198.7 478.22 225.46 489C230.333 490.987 235.547 492.006 240.81 492C264.48 492 279.4 473 283.69 454.11C285.527 445.569 286.366 436.844 286.19 428.11C286.19 427.98 286.19 427.51 286.19 426.71C290.345 427.922 294.651 428.541 298.98 428.55C305.159 428.548 311.267 427.233 316.899 424.692C322.532 422.151 327.56 418.442 331.65 413.81C330.25 418.27 328.98 422.81 327.87 427.31C321.8 452.04 315.67 497.84 342.75 526.82C353.3 538.13 365.03 540.5 373.01 540.5C379.53 540.5 394.55 538.63 406.62 523.12C407.746 527.593 408.78 532.193 409.72 536.92C412.67 551.84 411.49 566.18 406.29 578.39C405.93 579.22 405.56 580.09 405.22 580.95C404.95 581.65 404.62 582.51 404.32 583.33L404.19 583.67C403.94 584.36 403.69 585.03 403.46 585.67C403.07 586.81 402.7 587.9 402.38 588.99C402.06 590.08 401.63 591.43 401.31 592.64C401.11 593.39 400.89 594.23 400.69 595.07L400.53 595.78C400.4 596.32 400.26 596.9 400.14 597.49C399.63 599.77 399.14 602.26 398.88 604.7C398.74 605.7 398.58 606.92 398.48 608.12C398.22 610.76 398.07 613.65 398.07 616.33C398.07 617.65 398.07 618.93 398.17 620.25C398.17 620.89 398.25 621.71 398.31 622.56C398.622 626.832 399.291 631.07 400.31 635.23C400.55 636.23 400.88 637.5 401.26 638.72C401.65 640.1 402.11 641.51 402.74 643.25C404.706 648.552 407.23 653.631 410.27 658.4L410.63 658.95C410.96 659.44 411.29 659.95 411.63 660.43C411.97 660.91 412.38 661.49 412.83 662.1C414.594 664.511 416.554 666.772 418.69 668.86C419.12 669.31 419.56 669.74 420.03 670.16C420.75 670.83 421.69 671.62 422.65 672.39L423.53 673.09L425.43 674.93L427.28 675.65C428.416 676.353 429.587 676.997 430.79 677.58C432.04 678.222 433.325 678.793 434.64 679.29C435.18 679.49 435.72 679.68 436.26 679.85C436.8 680.02 437.15 680.14 437.59 680.27H437.75C438.57 680.51 439.34 680.72 440.11 680.88C441.756 681.266 443.427 681.543 445.11 681.71L446.93 681.85H447.59C447.29 683.4 446.96 684.99 446.59 686.6L445.97 689.36L445.82 689.96C445.54 691.13 445.26 692.27 444.97 693.42C444.68 694.57 444.49 695.31 444.27 696.16L443.27 699.72C442.98 700.85 442.73 701.72 442.48 702.56L442.38 702.9C442.06 704.09 441.78 705.07 441.47 706.06L440.61 708.85V708.98C440.22 710.31 439.82 711.64 439.41 712.98C438.52 715.84 437.59 718.77 436.63 721.7C435.92 723.89 435.17 726.13 434.4 728.37C429.1 743.83 429.56 760.47 425.84 776.31C422.219 791.941 416.394 806.979 408.54 820.97C407.166 823.39 405.73 825.773 404.23 828.12C403.51 829.25 402.78 830.39 402 831.52C386.235 855.282 364.837 874.777 339.712 888.265C314.587 901.754 286.516 908.819 258 908.83V908.83ZM346.45 379.26C347.85 370.861 348.649 362.373 348.84 353.86C349.53 353.86 350.24 353.86 350.96 353.86C355.135 353.849 359.289 353.274 363.31 352.15L362.12 354.33C360.06 358.08 357.55 361.87 354.91 365.89L354.51 366.49C351.84 370.67 349.1 374.82 346.48 379.26H346.45ZM240.45 254.13C239.705 243.323 240.629 232.466 243.19 221.94L247.06 226.33C244.44 235.75 242.23 245.017 240.43 254.13H240.45Z" fill="#FFE8CC"/>
<path d="M258 899.11C227.708 899.143 198.008 890.724 172.24 874.8L162.95 868.61C150.65 860.4 139.67 849.32 130.46 837.82C123.14 828.67 117.28 818.47 111.87 808.1C106.46 797.73 100.52 787.27 96.0597 776.44C95.5197 775.16 95.0597 774.11 94.6897 773.02C92.5634 767.531 90.7504 761.925 89.2597 756.23C89.0297 755.33 88.7597 754.23 88.5097 753.23C86.7788 746.035 85.5293 738.732 84.7697 731.37C84.6697 730.29 84.5797 729.37 84.5097 728.47C84.2997 726.14 84.1597 724.11 84.0597 722.06V720.64V720.34C84.0597 719.52 83.9897 718.71 83.9797 717.88V716.72C83.9797 715.4 83.9297 714.02 83.9297 712.62C83.9297 708.84 84.0297 704.87 84.2497 700.82C84.8028 691.04 85.9685 681.304 87.7397 671.67C88.1097 669.6 88.4997 667.67 88.8997 665.73C91.3395 657.137 93.3421 648.426 94.8997 639.63L95.5497 639.71C96.8997 639.87 97.8397 639.96 98.7697 640.01C99.6997 640.06 100.64 640.11 101.67 640.11C114.53 640.11 138.09 634.93 151.3 600.26L151.84 598.74L151.93 598.44L153.68 594.26V591.46L153.79 590.9C154.12 589.24 154.44 587.3 154.79 585.05C154.84 584.69 154.95 583.93 155.04 583.05C155.17 582.05 155.29 580.98 155.41 579.9L155.53 578.49C155.6 577.86 155.71 576.54 155.81 575.16L155.88 574.16V573.79C155.94 572.79 155.98 571.79 156.02 570.79V570.14C156.02 569.74 156.02 569.14 156.02 568.63C156.02 567.78 156.02 566.36 156.02 564.88C156.02 564.37 156.02 563.88 156.02 563.33C156.02 561.17 155.93 559.13 155.8 557.08C155.565 552.479 155.098 547.894 154.4 543.34C153.84 539.34 153.03 535.15 152.01 530.89C151.53 528.89 151.13 527.35 150.69 525.73C149.449 521.155 147.967 516.649 146.25 512.23C145.57 510.46 144.83 508.62 144.03 506.77L143.54 505.67C143.31 505.12 143.02 504.48 142.73 503.84C141.87 501.94 140.89 499.93 139.95 498.13C137.676 493.672 135.176 489.333 132.46 485.13C116.4 457.68 105.87 429.92 101.33 411.72C105.365 412.836 109.533 413.401 113.72 413.4C129.72 413.4 151.27 404.12 159.4 377.95C159.4 377.84 159.51 377.61 159.62 377.27C159.84 377.69 160.07 378.11 160.3 378.53C162.58 382.74 164.95 386.39 167.23 389.93L167.6 390.49C169.18 392.88 170.74 395.23 171.7 397.06C178.216 409.459 182.901 422.737 185.61 436.48C185.61 436.82 185.76 438.82 185.76 438.82C186.76 451.53 189.32 484.94 221.68 498C227.712 500.458 234.165 501.722 240.68 501.72C269.68 501.72 287.9 478.89 293.04 456.26C294.356 450.337 295.192 444.318 295.54 438.26C296.64 438.32 297.75 438.36 298.85 438.36C304.691 438.369 310.493 437.409 316.02 435.52C310.74 463.28 308.91 505.07 335.52 533.52C348.45 547.38 362.97 550.29 372.88 550.29C382.734 550.193 392.352 547.255 400.58 541.83C402.46 553.74 401.31 565.03 397.21 574.63C396.82 575.54 396.42 576.5 396.04 577.45C395.75 578.18 395.37 579.17 395.04 580.11L394.95 580.34C394.66 581.11 394.4 581.84 394.14 582.57C393.7 583.87 393.29 585.08 392.93 586.28C392.57 587.48 392.14 588.85 391.78 590.28C391.56 591.08 391.31 592.03 391.09 592.98L390.92 593.72C390.78 594.28 390.62 594.99 390.48 595.72C389.94 598.1 389.48 600.9 389.11 603.61C388.96 604.61 388.78 606.05 388.66 607.43C388.37 610.3 388.22 613.43 388.22 616.43C388.22 617.91 388.22 619.35 388.32 620.83C388.32 621.46 388.41 622.42 388.49 623.41C388.853 628.226 389.619 633.002 390.78 637.69C391.02 638.69 391.4 640.15 391.88 641.69C392.36 643.23 392.8 644.69 393.51 646.69C395.729 652.679 398.578 658.414 402.01 663.8L402.42 664.43C402.82 665.03 403.23 665.63 403.64 666.22C403.9 666.6 404.39 667.29 404.93 668.01C406.973 670.791 409.234 673.406 411.69 675.83C412.263 676.417 412.853 676.987 413.46 677.54C414.16 678.2 415.3 679.15 416.46 680.08L417.09 680.58L419.99 683.41L422.91 684.55C424.08 685.24 425.28 685.88 426.47 686.46C427.978 687.213 429.527 687.88 431.11 688.46C431.79 688.71 432.45 688.94 433.11 689.15C433.77 689.36 434.29 689.54 434.89 689.71L435.76 689.96C435.66 690.37 435.56 690.78 435.45 691.19C435.21 692.19 435 693.01 434.79 693.79L433.79 697.36C433.51 698.45 433.3 699.17 433.09 699.89L432.95 700.38C432.62 701.57 432.36 702.46 432.08 703.38L430.8 707.56V707.73C430.55 708.58 430.29 709.43 430.03 710.27C429.16 713.04 428.24 715.94 427.29 718.84C426.6 720.98 425.87 723.17 425.11 725.37C419.7 741.12 419.56 757.95 415.83 774.08C412.355 789.787 406.515 804.876 398.51 818.83C397.676 820.257 396.816 821.667 395.93 823.06C395.28 824.06 394.6 825.14 393.88 826.2C378.989 848.605 358.793 866.984 335.088 879.704C311.383 892.424 284.902 899.09 258 899.11V899.11Z" fill="#FF8A00"/>
<path d="M481.12 633.74C478.37 610.5 465.76 589.45 466.27 565.52C466.37 560.88 466.41 552.98 470.06 549.31C456.4 562.97 455.86 583.98 459.22 601.67C461.97 616.28 470.43 637.09 454.04 647.28C444.36 653.28 436.76 639.33 434.04 631.94C429.18 618.72 431.49 604.2 436.91 591.54C445.08 572.38 446.42 550.94 442.36 530.54C437.15 504.21 428.55 477.54 414.28 454.64C401.81 434.64 396.68 405.22 400.84 381.98C402.12 374.73 404.63 363.92 410.46 358.64C394.2 373.32 386.71 392.12 383.38 408.28C378.98 429.75 386.93 450.97 387.63 472.39C387.93 481.48 387.1 490.89 382.7 499.01C379.25 505.38 373.39 511.01 367.07 504.19C351.34 487.36 355.28 455.42 360.19 435.36C362.565 425.736 365.701 416.316 369.57 407.19C375.16 394.01 384.47 382.93 391.35 370.46C402 351.09 411 330.67 417 309.42C431.15 259.42 399.21 191.95 399.21 191.95C381.21 136.69 401.42 126.53 402.32 126.12C402.32 126.56 407.45 130.5 408.23 130.76C410.157 131.401 412.236 131.429 414.18 130.84C427.18 127.09 426.41 109.49 426.92 98.94C427.585 83.3058 425.064 67.6995 419.51 53.07C403.9 11.23 408.51 0 408.51 0C399.61 8.63 399.51 22.49 401.7 33.86C402.89 39.99 405.98 45.39 407.46 51.44C409.75 60.8 412.88 73.63 407.2 82.29C406.56 83.29 399.08 91.14 398.95 91.14C383.35 70.55 370.22 96.75 370.22 96.75C352.74 142.94 377.71 220.98 377.71 220.98C385.22 270.91 367.11 304.31 367.11 304.31C361.18 325.54 346.81 319.92 346.81 319.92C320.6 288.71 338.81 259.46 338.81 259.46C364.6 270.72 367.11 214.95 367.11 214.95C364.6 145.45 321.53 96.44 321.53 96.44C340.83 187.26 330.23 210.67 330.23 210.67C318.23 202.26 310.88 213.49 310.88 213.49C287.78 250.32 308.37 297.75 308.37 297.75C321.48 343.33 312.75 378.29 312.75 378.29C310.98 388.45 304.82 399.22 293.08 393.94C282.92 389.37 279.35 375.69 276.21 366.08C261.75 321.91 268.02 272.76 280.9 229.08C313.38 119.2 264.69 69.89 264.69 69.89C288.42 136.07 257.2 187.46 257.2 187.46C232.2 159.16 213.49 204.94 213.49 204.94C195.6 256.94 219.74 313.14 219.74 313.14C253.46 373.07 252.83 428.52 252.83 428.52C252.973 434.641 252.409 440.758 251.15 446.75C249.81 452.61 245.09 461.02 237.87 458.1C227.87 454.04 229.66 437.03 228.03 428.57C224.531 410.636 218.437 393.307 209.94 377.13C206.44 370.46 201.77 364.51 198.2 357.97C164.39 295.9 179 248.67 179.46 247.21C168.54 258.8 164.8 314.91 164.8 314.91C163.56 287.47 139 242.83 139 242.83C108.83 189.13 129.2 108.62 129.2 108.62C78.67 166.67 119.87 259.67 119.87 259.67C139.87 301.48 118.41 365.15 118.41 365.15C115.08 376 108.2 366.67 108.2 366.67C80.54 327.14 59.32 377.07 59.32 377.07C42.47 417.07 96.15 508.18 96.15 508.18C121.15 546.25 111.15 584.95 111.15 584.95C101.38 610.74 93.67 587.45 93.67 587.45C86.79 483.16 0 500.67 0 500.67C87.39 523.13 47 655.67 47 655.67C45.1238 664.506 43.6953 673.43 42.72 682.41C42.5 684.48 42.31 686.52 42.14 688.56C42.1498 688.723 42.1498 688.887 42.14 689.05C41.99 691.05 41.87 693.05 41.75 694.98C41.53 699.213 41.4167 703.387 41.41 707.5C41.41 709.28 41.41 711.05 41.48 712.8C41.48 713.56 41.48 714.31 41.53 715.04C41.5967 717.04 41.6933 719.01 41.82 720.95C41.9 722.18 41.97 723.42 42.09 724.66C42.41 728.82 42.84 732.93 43.4 736.94C43.62 738.59 43.87 740.27 44.13 741.94C44.13 742.16 44.21 742.38 44.23 742.57C44.45 743.89 44.67 745.2 44.91 746.49L45.42 749.11C45.71 750.62 46.03 752.11 46.35 753.63C46.61 754.85 46.9 756.04 47.2 757.21C47.37 757.99 47.56 758.76 47.76 759.52C48.02 760.66 48.34 761.78 48.63 762.9L49.14 764.77C49.43 765.77 49.72 766.77 50.02 767.77C51.5 772.77 53.15 777.56 54.93 782.23C55.27 783.13 55.61 784.03 55.93 784.9C56.05 785.22 56.17 785.51 56.29 785.83C56.63 786.68 56.97 787.53 57.34 788.36C59.02 792.36 60.7933 796.263 62.66 800.07C69.78 814.5 76.55 829.38 85.04 843.07C102.447 871.22 126.467 894.692 155.013 911.442C183.559 928.192 215.765 937.714 248.83 939.18C251.89 939.307 254.953 939.373 258.02 939.38C295.689 939.368 332.616 928.908 364.695 909.164C396.775 889.419 422.749 861.164 439.73 827.54C445.743 815.481 450.499 802.834 453.92 789.8C458.11 774.13 460.11 758 464.92 742.54C465.4 740.99 465.92 739.43 466.4 737.85C467.1 735.64 467.78 733.43 468.4 731.19C469.18 728.61 469.96 726.01 470.71 723.41C470.86 722.83 471.03 722.24 471.2 721.68C472 718.79 472.8 715.9 473.58 713.01C474.36 710.12 475.21 706.93 475.99 703.89C482.042 681.028 483.781 657.239 481.12 633.74V633.74ZM469.7 660.55C469.7 661.16 469.7 661.79 469.62 662.43C469.62 663.43 469.53 664.37 469.45 665.34V665.44C469.36 666.85 469.23 668.26 469.09 669.69C468.89 671.57 468.67 673.44 468.41 675.33C468.29 676.18 468.16 677.01 468.04 677.86C467.36 682.16 466.54 686.52 465.59 690.86L464.93 693.78C464.57 695.29 464.2 696.78 463.81 698.35C463.57 699.35 463.3 700.35 463.03 701.35C462.72 702.52 462.4 703.69 462.09 704.88C461.78 706.07 461.45 707.21 461.09 708.38C460.73 709.55 460.44 710.71 460.09 711.93C459.41 714.24 458.73 716.55 458.03 718.83C457.08 721.83 456.13 724.83 455.16 727.83C449.35 745.69 449.22 764.62 444.68 782.76C440.83 798.134 435.079 812.968 427.56 826.92C425.413 830.92 423.123 834.833 420.69 838.66C419.84 839.99 418.98 841.31 418.09 842.66C390.07 884.638 346.683 913.931 297.274 924.23C247.865 934.528 196.388 925.008 153.93 897.72C153.93 897.72 153.88 897.72 153.86 897.72C151.69 897.72 146.86 893 145.08 891.72C142.087 889.547 139.163 887.293 136.31 884.96C130.596 880.27 125.15 875.263 120 869.96C109.691 859.365 100.631 847.621 93 834.96C86.6 824.34 81.24 812.83 75.7 801.75C75.7 801.75 75.7 801.67 75.63 801.62C74.85 800.17 74.12 798.68 73.39 797.18C71.88 794.06 70.39 790.86 69.06 787.55C68.46 786.11 67.87 784.66 67.31 783.15C64.8683 776.778 62.7851 770.275 61.07 763.67C60.75 762.43 60.43 761.19 60.14 759.95C58.1299 751.555 56.6767 743.037 55.79 734.45C55.67 733.21 55.55 731.97 55.45 730.73C55.23 728.3 55.06 725.79 54.94 723.26C54.94 723.05 54.94 722.8 54.94 722.58C54.86 721.2 54.81 719.81 54.79 718.4C54.79 718.18 54.79 717.99 54.79 717.77C54.79 716.07 54.71 714.37 54.71 712.64C54.71 708.31 54.83 703.87 55.08 699.29C55.7189 688.263 57.0549 677.288 59.08 666.43C59.54 663.83 60.08 661.23 60.64 658.58C61.34 656.44 84.07 580.13 57.04 528.86C68.9 539.97 77.87 558.47 79.84 588.34L79.96 590.12L80.5 591.8C81.1574 593.741 81.9528 595.632 82.88 597.46C83.15 597.92 83.39 598.38 83.66 598.87C83.93 599.36 84.22 599.82 84.53 600.3C85.1561 601.316 85.8546 602.285 86.62 603.2C87.2055 603.93 87.8297 604.627 88.49 605.29C88.7054 605.515 88.936 605.726 89.18 605.92C90.1382 606.819 91.1872 607.617 92.31 608.3C92.5419 608.465 92.786 608.612 93.04 608.74C93.941 609.228 94.8769 609.65 95.84 610C96.4752 610.219 97.1231 610.399 97.78 610.54C98.24 610.66 98.78 610.73 99.24 610.81L100.48 610.93C100.89 610.93 101.31 610.93 101.74 610.93C116.14 610.93 122.14 595.03 124.13 589.8L124.6 588.37C124.6 588.37 124.6 588.37 124.6 588.27C124.625 588.145 124.659 588.021 124.7 587.9C124.77 587.52 124.92 586.9 125.06 586.18C125.06 585.86 125.18 585.52 125.26 585.18C125.47 584.08 125.69 582.72 125.91 581.12C125.99 580.63 126.06 580.12 126.11 579.59C126.23 578.76 126.33 577.84 126.42 576.91C126.42 576.62 126.42 576.35 126.5 576.06C126.59 575.06 126.67 574.14 126.74 573.12V572.88C126.81 571.88 126.86 570.71 126.91 569.57C126.91 569.28 126.91 568.96 126.91 568.65C126.91 567.43 126.91 566.19 126.91 564.9C126.91 564.66 126.91 564.42 126.91 564.17C126.91 562.45 126.91 560.67 126.74 558.78C126.57 555.3 126.2 551.58 125.62 547.72C125.16 544.48 124.53 541.15 123.7 537.72C123.36 536.33 123.02 534.95 122.63 533.54C121.644 529.897 120.466 526.308 119.1 522.79C118.54 521.33 117.96 519.88 117.33 518.42C116.99 517.66 116.67 516.91 116.33 516.18C115.68 514.72 114.97 513.24 114.19 511.76C112.238 507.905 110.071 504.163 107.7 500.55C88.7 468.17 61.78 406.83 72.06 382.45C75.78 373.85 82.95 365.31 86.5 365.31C87.91 365.31 91.66 367.26 96.81 374.62C98.61 377.08 104.62 384.3 113.81 384.3C116.92 384.3 127.38 383.2 131.65 369.3C132.36 367.21 148.16 319.3 139.75 276.59C145.34 289.93 150.45 304.93 150.93 315.59L166.93 315.76C171.119 332.828 177.53 349.271 186 364.67C187.87 368.12 190 371.42 192.18 374.73C194.146 377.59 195.962 380.551 197.62 383.6C205.491 398.584 211.134 414.636 214.37 431.25C214.68 433.156 214.874 435.08 214.95 437.01C215.76 447.39 217.07 464.73 232.68 471.01C235.24 472.067 237.981 472.613 240.75 472.62C253.7 472.62 262.09 461.19 264.67 449.86C266.157 442.807 266.828 435.606 266.67 428.4C266.67 426.31 266.91 369.3 232.22 307.14C229.86 301.26 211.63 252.98 226.58 209.48C229.93 201.48 237.35 192.15 240.68 192.15C241.38 192.15 243.57 193.1 246.76 196.7L259.23 210.82L269.06 194.67C272.314 188.966 275.08 182.999 277.33 176.83C275.622 193.211 272.368 209.393 267.61 225.16C251.2 280.73 249.61 329.57 263.01 370.39L263.81 372.84C267.24 383.61 272.47 399.9 287.39 406.61C291.018 408.266 294.952 409.144 298.94 409.19C312.6 409.19 323.4 398 326.41 380.67C326.58 380.16 333.19 352.81 326.51 314.67C329.22 319.713 332.455 324.456 336.16 328.82L338.42 331.52L341.73 332.81C344.693 333.907 347.83 334.46 350.99 334.44C357.48 334.44 373.11 331.96 379.99 309.44C383.66 301.91 398.63 267.44 391.36 218.91L391.19 217.82L390.85 216.75C390.78 216.48 387.3 205.49 383.97 189.75C384.58 191.84 386.26 197.09 386.26 197.09L386.62 197.87C386.94 198.5 416.16 261.39 403.62 305.64C398.34 324.31 390.1 343.88 379.16 363.76C376.61 368.4 373.67 372.83 370.75 377.25C365.75 384.84 360.61 392.67 356.75 401.76C352.579 411.569 349.205 421.699 346.66 432.05C341.53 452.95 336.04 491.34 356.87 513.63C362.66 519.83 368.78 521.14 372.92 521.14C377.92 521.14 387.53 519.14 394.84 505.61C401.36 493.61 401.72 480.61 401.43 471.92C401.271 467.346 400.88 462.784 400.26 458.25C400.97 459.52 401.7 460.76 402.45 461.95C414.27 480.95 423.09 504.95 428.71 533.23C432.43 552.02 430.82 570.3 424.09 586.1C423.8 586.78 423.51 587.46 423.24 588.1C422.97 588.74 422.75 589.34 422.53 589.95C422.31 590.56 422 591.39 421.75 592.09C421.44 593.01 421.12 593.94 420.86 594.86C420.6 595.78 420.27 596.73 420.03 597.66C419.86 598.29 419.69 598.92 419.54 599.55C419.39 600.18 419.23 600.84 419.11 601.47C418.67 603.423 418.337 605.347 418.11 607.24C417.99 608.11 417.87 608.99 417.8 609.84C417.58 612.05 417.46 614.24 417.46 616.4C417.46 617.4 417.46 618.4 417.53 619.4C417.53 620.03 417.6 620.64 417.65 621.27C417.896 624.457 418.407 627.618 419.18 630.72C419.38 631.6 419.62 632.45 419.89 633.3C420.2 634.44 420.59 635.59 421.01 636.73C422.472 640.66 424.346 644.424 426.6 647.96C426.89 648.4 427.18 648.86 427.5 649.3C427.82 649.74 428.13 650.2 428.5 650.66C429.739 652.348 431.121 653.928 432.63 655.38C432.757 655.529 432.898 655.666 433.05 655.79C433.63 656.35 434.26 656.86 434.89 657.37C435.271 657.681 435.668 657.971 436.08 658.24C436.129 658.296 436.191 658.341 436.26 658.37C437.286 659.102 438.374 659.744 439.51 660.29C440.18 660.639 440.871 660.947 441.58 661.21C441.9 661.33 442.21 661.43 442.53 661.53C442.85 661.63 442.99 661.67 443.21 661.74C443.43 661.81 443.89 661.94 444.21 662.01C445.145 662.236 446.094 662.399 447.05 662.5L447.88 662.57C448.34 662.57 448.83 662.57 449.31 662.57C453.565 662.546 457.726 661.315 461.31 659.02C464.415 657.125 467.211 654.764 469.6 652.02C469.77 654.89 469.79 657.67 469.7 660.55V660.55Z" fill="#FF8A00"/>
<path d="M230.88 698.29C228.627 704.124 225.19 709.427 220.786 713.867C216.382 718.306 211.105 721.785 205.289 724.084C199.474 726.382 193.245 727.451 186.995 727.223C180.746 726.994 174.612 725.474 168.979 722.757C163.347 720.039 158.339 716.185 154.27 711.436C150.202 706.687 147.161 701.146 145.34 695.164C143.519 689.181 142.958 682.886 143.691 676.676C144.424 670.465 146.436 664.474 149.6 659.08L230.88 698.29Z" fill="#FFE8CC"/>
<path d="M288.81 698.29C291.063 704.124 294.5 709.427 298.904 713.867C303.308 718.306 308.585 721.785 314.4 724.084C320.216 726.382 326.445 727.451 332.694 727.223C338.944 726.994 345.078 725.474 350.71 722.757C356.343 720.039 361.351 716.185 365.42 711.436C369.488 706.687 372.529 701.146 374.35 695.164C376.17 689.181 376.732 682.886 375.999 676.676C375.266 670.465 373.254 664.474 370.09 659.08L288.81 698.29Z" fill="#FFE8CC"/>
<path d="M367.14 808.45C366.903 804.637 365.943 800.904 364.31 797.45C364.31 797.45 362.17 809.65 357.23 817.39C357.23 817.39 354.29 811.27 343.06 806.08C343.06 806.08 335.72 820.87 331.98 824.08C328.24 827.29 328.5 833.85 328.5 833.85C328.5 833.85 314.61 822.38 306.59 818.99C306.59 818.99 300.44 829.35 295.1 834.36C289.76 839.37 286.94 847.2 286.94 847.2C286.94 847.2 281.49 839.67 261.86 826.92C242.22 839.67 236.77 847.2 236.77 847.2C236.77 847.2 233.96 839.38 228.61 834.36C223.26 829.34 217.12 818.99 217.12 818.99C209.12 822.38 195.22 833.85 195.22 833.85C195.22 833.85 195.48 827.31 191.73 824.08C187.98 820.85 180.65 806.08 180.65 806.08C169.42 811.27 166.48 817.39 166.48 817.39C161.54 809.65 159.41 797.45 159.41 797.45C157.498 801.518 156.498 805.955 156.48 810.45C154.41 789.68 156.34 774.71 157.59 767.91C156.97 773.56 157.54 785.03 167.02 802.09C167.02 802.09 176.54 796.74 181.15 792.4C181.15 792.4 188.15 810.59 197.75 818.15C205.069 815.035 212.055 811.189 218.6 806.67C218.6 806.67 226.88 821.67 238.5 831.49C238.5 831.49 255.6 820.77 261.89 813.63C268.17 820.77 285.28 831.49 285.28 831.49C296.89 821.7 305.18 806.67 305.18 806.67C311.715 811.202 318.691 815.065 326 818.2C335.62 810.64 342.6 792.45 342.6 792.45C347.21 796.79 356.73 802.14 356.73 802.14C365.04 787.14 366.5 776.52 366.32 770.3C367.5 778.6 369 793.74 367.14 808.45Z" fill="#FFE8CC"/>
</svg>
