<svg width="148" height="65" viewBox="0 0 148 65" fill="none" xmlns="http://www.w3.org/2000/svg">
<path d="M38.2731 64.0587V63.0234C38.5006 63.1755 38.9946 63.2975 39.4784 63.2975C40.4274 63.2975 41.0351 62.8514 41.0351 62.1005V61.7216H40.9782C40.8549 61.9956 40.304 62.4808 39.4318 62.4808C38.2923 62.4808 37.0576 61.6263 37.0576 59.9168C37.0576 58.2073 38.2909 57.3535 39.4318 57.3535C40.304 57.3535 40.8549 57.8373 40.9782 58.1127H41.0351V57.4474H42.3096V62.0155C42.3096 63.9053 40.8275 64.3609 39.7059 64.3609C39.1378 64.3623 38.5671 64.2478 38.2731 64.0587ZM39.6887 61.342C40.4095 61.342 41.0646 60.8493 41.0646 59.9182C41.0646 58.987 40.4095 58.4923 39.6887 58.4923C38.9679 58.4923 38.3101 58.9959 38.3101 59.9168C38.3101 60.8377 38.9748 61.342 39.6887 61.342Z" fill="#FF8A00"/>
<path d="M43.0488 59.9181C43.0488 58.2093 44.2739 57.3548 45.423 57.3548C46.3048 57.3548 46.8756 57.8386 46.9989 58.114H47.0263V57.4487H48.3008V62.3868H47.0263V61.7229H46.9989C46.8756 61.997 46.3048 62.4821 45.423 62.4821C44.2739 62.4821 43.0488 61.6276 43.0488 59.9181ZM45.6793 61.3419C46.3912 61.3419 47.0558 60.8493 47.0558 59.9181C47.0558 58.9869 46.3912 58.4936 45.6793 58.4936C44.9673 58.4936 44.3013 58.9972 44.3013 59.9181C44.3013 60.839 44.966 61.3419 45.6793 61.3419Z" fill="#FF8A00"/>
<path d="M52.4166 59.5754C52.4166 58.8738 52.0466 58.4935 51.5053 58.4935C50.9462 58.4935 50.5461 58.8738 50.5461 59.5754V62.3847H49.2771V57.4465H50.5495V58.0838C50.816 57.6651 51.271 57.3527 51.9644 57.3527C52.5722 57.3527 53.1039 57.6082 53.4074 58.1749C53.6918 57.7192 54.2296 57.3527 55.0409 57.3527C56.0858 57.3527 56.8463 58.007 56.8463 59.5172V62.3847H55.5644V59.5754C55.5644 58.8738 55.2033 58.4935 54.6524 58.4935C54.1015 58.4935 53.6931 58.8738 53.6931 59.5754V62.3847H52.4166V59.5754Z" fill="#FF8A00"/>
<path d="M57.5776 59.9181C57.5776 58.2565 58.811 57.3548 60.0751 57.3548C61.3393 57.3548 62.7535 58.238 62.4767 60.4121H58.7836C58.9638 61.0863 59.5517 61.4399 60.291 61.4399C60.7754 61.4399 61.2023 61.3077 61.5634 60.9938L62.1437 61.6105C61.7326 62.123 61.0221 62.4834 60.1498 62.4834C58.7932 62.4821 57.5776 61.5605 57.5776 59.9181ZM61.3462 59.4816C61.2701 58.7786 60.6815 58.4271 60.084 58.4271C59.4866 58.4271 58.9254 58.7697 58.7623 59.4816H61.3462Z" fill="#FF8A00"/>
<path d="M62.8179 61.0959L63.8333 60.8218C63.9279 61.1446 64.167 61.4769 64.6507 61.4769C64.9728 61.4769 65.2859 61.3152 65.2859 60.9644C65.2859 60.7273 65.1352 60.5533 64.7453 60.4162L64.1375 60.1874C63.3201 59.8934 62.9789 59.3713 62.9789 58.7731C62.9789 57.8899 63.7573 57.3589 64.6919 57.3589C65.5826 57.3589 66.2383 57.8618 66.4014 58.621L65.4031 58.878C65.2702 58.4792 65.0153 58.3559 64.7487 58.3559C64.415 58.3559 64.217 58.5457 64.217 58.7827C64.217 58.9883 64.341 59.1719 64.7289 59.3055L65.277 59.5111C65.8848 59.7297 66.5494 60.0901 66.5494 60.9637C66.5494 61.9503 65.7046 62.4827 64.6692 62.4827C63.6901 62.482 62.9686 62.0065 62.8179 61.0959Z" fill="#FF8A00"/>
<path d="M37.0576 35.4577H40.8453V38.7932H37.0576V35.4577ZM37.0576 40.8289H40.8453V55.5316H37.0576V40.8289Z" fill="#FF8A00"/>
<path d="M59.6187 51.6863L62.6437 50.8641C62.926 51.8233 63.6332 52.8148 65.0741 52.8148C66.0334 52.8148 66.97 52.3352 66.97 51.2875C66.97 50.5804 66.5171 50.072 65.3584 49.6479L63.5475 48.9695C61.1165 48.0932 60.099 46.5385 60.099 44.757C60.099 42.1273 62.4176 40.5438 65.1878 40.5438C67.8464 40.5438 69.7971 42.043 70.2774 44.3041L67.3092 45.0681C66.9131 43.88 66.1485 43.512 65.3584 43.512C64.3684 43.512 63.7743 44.078 63.7743 44.7844C63.7743 45.4073 64.1409 45.9445 65.3016 46.3405L66.9405 46.9619C68.7501 47.6129 70.7303 48.6872 70.7303 51.2875C70.7303 54.2283 68.2129 55.8097 65.131 55.8097C62.2196 55.8139 60.0716 54.4003 59.6187 51.6863Z" fill="#FF8A00"/>
<path d="M72.8789 35.4577H76.6666V38.7932H72.8789V35.4577ZM72.8789 40.8289H76.6666V55.5316H72.8789V40.8289Z" fill="#FF8A00"/>
<path d="M90.6916 55.5316V53.5528H90.6052C90.2387 54.375 88.5428 55.8139 85.9117 55.8139C82.4906 55.8139 78.8447 53.2691 78.8447 48.1809C78.8447 43.0927 82.4906 40.5466 85.9117 40.5466C88.5428 40.5466 90.2387 41.9889 90.6052 42.8077H90.6916V35.4577H94.4793V55.5336L90.6916 55.5316ZM86.6757 52.4215C88.795 52.4215 90.7752 50.9511 90.7752 48.1809C90.7752 45.4107 88.795 43.9396 86.6757 43.9396C84.5564 43.9396 82.5763 45.4381 82.5763 48.1809C82.5763 50.9237 84.5551 52.4215 86.6757 52.4215Z" fill="#FF8A00"/>
<path d="M97.365 35.4577H101.153V38.7932H97.365V35.4577ZM97.365 40.8289H101.153V55.5316H97.365V40.8289Z" fill="#FF8A00"/>
<path d="M103.326 48.1809C103.326 43.2044 107.228 40.5466 111.074 40.5466C114.891 40.5466 118.82 43.2044 118.82 48.1809C118.82 53.1574 114.891 55.8139 111.074 55.8139C107.232 55.8139 103.326 53.1568 103.326 48.1809ZM111.077 52.3941C113.196 52.3941 115.063 50.8114 115.063 48.1823C115.063 45.5533 113.196 43.9691 111.077 43.9691C108.958 43.9691 107.062 45.5526 107.062 48.1823C107.062 50.812 108.956 52.3941 111.077 52.3941Z" fill="#FF8A00"/>
<path d="M136.888 51.6863L139.913 50.8641C140.195 51.8233 140.903 52.8148 142.344 52.8148C143.306 52.8148 144.24 52.3352 144.24 51.2875C144.24 50.5804 143.787 50.072 142.628 49.6479L140.817 48.9695C138.386 48.0932 137.368 46.5385 137.368 44.757C137.368 42.1273 139.687 40.5438 142.457 40.5438C145.116 40.5438 147.067 42.043 147.547 44.3041L144.579 45.0681C144.183 43.88 143.418 43.512 142.628 43.512C141.638 43.512 141.044 44.078 141.044 44.7844C141.044 45.4073 141.41 45.9445 142.571 46.3405L144.21 46.9619C146.02 47.6129 148 48.6872 148 51.2875C148 54.2283 145.482 55.8097 142.401 55.8097C139.489 55.8139 137.341 54.4003 136.888 51.6863Z" fill="#FF8A00"/>
<path d="M121.126 50.3852C121.459 52.5572 122.916 54.4833 125.039 55.1431C127.179 55.8091 129.807 55.7755 131.826 54.732C134.019 53.5994 134.853 51.0073 134.853 48.6873V40.5466H130.842V48.0302C130.842 49.3321 130.377 50.7949 129.122 51.3945C128.106 51.8809 126.814 51.7179 126.009 50.9066C125.265 50.1529 125.007 49.0566 125.007 48.0288V40.5466H120.998V48.688C120.997 49.2561 121.04 49.8235 121.126 50.3852Z" fill="#FF8A00"/>
<path d="M57.4506 45.7512C57.1169 43.5792 55.6596 41.6531 53.5369 40.9933C51.3963 40.3273 48.7693 40.3608 46.7501 41.4044C44.5575 42.537 43.7236 45.129 43.7236 47.4491V55.5905H47.7347V48.1069C47.7347 46.805 48.1993 45.3414 49.4538 44.7419C50.47 44.2554 51.7622 44.4185 52.5666 45.2298C53.3114 45.9835 53.5697 47.0798 53.5697 48.1075V55.5905H57.5788V47.4484C57.579 46.8802 57.5362 46.3129 57.4506 45.7512Z" fill="#FF8A00"/>
<path d="M32.1833 45.2599C32.1833 45.3017 32.1833 45.3449 32.1778 45.3887C32.1778 45.4572 32.1716 45.5216 32.1662 45.5881V45.595C32.16 45.6916 32.1511 45.7882 32.1415 45.8862C32.1278 46.015 32.1127 46.1431 32.0949 46.2726C32.0867 46.3308 32.0778 46.3877 32.0695 46.4459C32.0229 46.7406 31.9668 47.0393 31.9017 47.3367L31.8564 47.5368C31.8318 47.6402 31.8064 47.7423 31.7797 47.8499C31.7633 47.9184 31.7448 47.9869 31.7263 48.0555C31.705 48.1356 31.6831 48.2158 31.6619 48.2973C31.6406 48.3789 31.618 48.457 31.5933 48.5371C31.5687 48.6173 31.5488 48.6968 31.5248 48.7804C31.4782 48.9387 31.4316 49.0969 31.3837 49.2532C31.3186 49.4587 31.2535 49.6643 31.187 49.8698C31.0253 50.3774 30.9054 50.8974 30.8287 51.4245C30.754 51.9172 30.7492 52.4249 30.6457 52.9121C30.534 53.4321 30.3943 53.959 30.2305 54.4667C29.8939 55.5108 29.4275 56.5085 28.8423 57.4363L28.8252 57.4637C28.7669 57.5549 28.708 57.6453 28.647 57.7378C26.7271 60.6141 23.7543 62.6212 20.3689 63.3268C16.9835 64.0325 13.4563 63.3802 10.5472 61.5104C10.5472 61.5104 10.5438 61.5104 10.5424 61.5104C8.3078 60.0696 6.55944 57.9886 5.52546 55.5391C5.52546 55.5391 5.52546 55.539 5.52546 55.5342C5.46859 55.4376 5.41241 55.341 5.35691 55.241C5.30141 55.141 5.24522 55.0409 5.19384 54.9381C5.19384 54.9381 5.19384 54.9327 5.18904 54.9292C5.13559 54.8299 5.08558 54.7278 5.03556 54.625C4.93209 54.4112 4.83 54.192 4.73887 53.9652C4.69776 53.8665 4.65734 53.7672 4.61896 53.6637C4.44922 53.2261 4.30419 52.7794 4.18456 52.3255C4.16263 52.2406 4.14071 52.1556 4.12083 52.0706C3.9831 51.4954 3.88354 50.9118 3.82278 50.3234C3.81456 50.2385 3.80633 50.1535 3.79948 50.0685C3.78441 49.902 3.77276 49.73 3.76454 49.5567C3.76454 49.5423 3.76454 49.5252 3.76454 49.5101C3.75906 49.4156 3.75563 49.3203 3.75426 49.2237C3.75426 49.2086 3.75426 49.1956 3.75426 49.1805C3.75426 49.064 3.74878 48.9476 3.74878 48.829C3.74878 48.5323 3.757 48.2281 3.77413 47.9143C3.81791 47.1588 3.90945 46.4068 4.04821 45.6628C4.07972 45.4846 4.11672 45.3065 4.15509 45.1249C4.20306 44.9783 5.76048 39.7496 3.90843 36.2367C4.72106 36.9979 5.33567 38.2655 5.47065 40.3122L5.47887 40.4341L5.51587 40.5493C5.56092 40.6822 5.61542 40.8118 5.67895 40.9371C5.69745 40.9686 5.71389 41.0001 5.73239 41.0337C5.75089 41.0672 5.77076 41.0988 5.792 41.1317C5.8349 41.2012 5.88276 41.2677 5.93521 41.3304C5.97532 41.3804 6.01809 41.4282 6.06333 41.4736C6.0781 41.489 6.09389 41.5034 6.11061 41.5167C6.17627 41.5784 6.24814 41.633 6.32508 41.6798C6.34097 41.6911 6.35769 41.7012 6.37509 41.71C6.43683 41.7434 6.50095 41.7723 6.56695 41.7963C6.61047 41.8113 6.65486 41.8236 6.69987 41.8333C6.73139 41.8415 6.76839 41.8463 6.79991 41.8518L6.88487 41.86C6.91296 41.86 6.94174 41.86 6.97121 41.86C7.95787 41.86 8.36898 40.7706 8.50533 40.4122L8.53754 40.3142C8.53754 40.3142 8.53754 40.3142 8.53754 40.3074C8.53928 40.2988 8.54157 40.2903 8.54439 40.282C8.54919 40.256 8.55946 40.2135 8.56906 40.1642C8.56906 40.1423 8.57728 40.119 8.58276 40.0957C8.59715 40.0203 8.61222 39.9271 8.6273 39.8175C8.63278 39.7839 8.63758 39.749 8.641 39.7126C8.64922 39.6558 8.65608 39.5927 8.66224 39.529C8.66224 39.5091 8.66224 39.4906 8.66772 39.4708C8.67389 39.4023 8.67937 39.3392 8.68417 39.2693V39.2529C8.68896 39.1844 8.69239 39.1042 8.69582 39.0261C8.69582 39.0062 8.69582 38.9843 8.69582 38.963C8.69582 38.8795 8.69582 38.7945 8.69582 38.7061C8.69582 38.6897 8.69582 38.6732 8.69582 38.6561C8.69582 38.5382 8.69582 38.4163 8.68417 38.2868C8.67252 38.0483 8.64717 37.7934 8.60743 37.529C8.57591 37.307 8.53274 37.0788 8.47587 36.8438C8.45258 36.7485 8.42928 36.654 8.40256 36.5574C8.335 36.3077 8.25426 36.0619 8.16069 35.8208C8.12232 35.7208 8.08258 35.6214 8.03941 35.5214C8.01611 35.4693 7.99419 35.4179 7.97089 35.3679C7.92635 35.2678 7.87771 35.1664 7.82426 35.065C7.69048 34.8009 7.54202 34.5445 7.37958 34.2969C6.07772 32.0783 4.23321 27.8754 4.93758 26.2049C5.19246 25.6156 5.68374 25.0305 5.92698 25.0305C6.02359 25.0305 6.28054 25.1641 6.63341 25.6684C6.75674 25.837 7.16854 26.3317 7.79822 26.3317C8.01132 26.3317 8.72802 26.2563 9.02059 25.3039C9.06924 25.1607 10.1518 21.878 9.57559 18.9515C9.95861 19.8656 10.3087 20.8933 10.3416 21.6237L11.4379 21.6354C11.7249 22.8048 12.1642 23.9316 12.7446 24.9866C12.8727 25.223 13.0187 25.4491 13.168 25.6759C13.3027 25.8719 13.4272 26.0748 13.5408 26.2837C14.0801 27.3104 14.4667 28.4103 14.6884 29.5486C14.7097 29.6792 14.723 29.811 14.7282 29.9433C14.7837 30.6545 14.8734 31.8426 15.943 32.2729C16.1184 32.3453 16.3062 32.3828 16.496 32.3832C17.3833 32.3832 17.9582 31.6 18.1349 30.8237C18.2368 30.3405 18.2828 29.8471 18.272 29.3533C18.272 29.2101 18.2884 25.3039 15.9115 21.0448C15.7498 20.6419 14.5007 17.3338 15.5251 14.3533C15.7546 13.8051 16.263 13.1658 16.4912 13.1658C16.5391 13.1658 16.6892 13.2309 16.9078 13.4776L17.7622 14.4451L18.4357 13.3385C18.6587 12.9477 18.8482 12.5388 19.0024 12.1161C18.8853 13.2385 18.6624 14.3473 18.3364 15.4276C17.212 19.2352 17.103 22.5816 18.0212 25.3786L18.076 25.5464C18.311 26.2844 18.6694 27.4005 19.6917 27.8603C19.9403 27.9737 20.2098 28.034 20.4831 28.0371C21.419 28.0371 22.159 27.2704 22.3653 26.0829C22.3769 26.048 22.8298 24.174 22.3721 21.5607C22.5578 21.9062 22.7794 22.2312 23.0333 22.5303L23.1882 22.7152L23.415 22.8036C23.618 22.8788 23.8329 22.9167 24.0494 22.9153C24.4941 22.9153 25.5651 22.7454 26.0365 21.2024C26.2879 20.6864 27.3137 18.3246 26.8155 14.9994L26.8039 14.9247L26.7806 14.8514C26.7758 14.8329 26.5374 14.0799 26.3092 13.0014C26.351 13.1446 26.4661 13.5043 26.4661 13.5043L26.4908 13.5578C26.5127 13.6009 28.5148 17.91 27.6556 20.942C27.2938 22.2212 26.7292 23.5621 25.9796 24.9243C25.8049 25.2422 25.6034 25.5458 25.4034 25.8486C25.0608 26.3687 24.7086 26.9052 24.4441 27.528C24.1583 28.2001 23.9271 28.8942 23.7528 29.6034C23.4013 31.0355 23.0251 33.6659 24.4523 35.1932C24.8491 35.618 25.2684 35.7077 25.5521 35.7077C25.8947 35.7077 26.5531 35.5707 27.054 34.6436C27.5007 33.8214 27.5254 32.9307 27.5055 32.3353C27.4946 32.0219 27.4679 31.7093 27.4254 31.3986C27.474 31.4856 27.524 31.5706 27.5754 31.6521C28.3853 32.954 28.9896 34.5984 29.3747 36.5361C29.6296 37.8236 29.5193 39.0761 29.0582 40.1587C29.0383 40.2053 29.0184 40.2519 28.9999 40.2957C28.9814 40.3396 28.9663 40.3807 28.9513 40.4225C28.9362 40.4643 28.9149 40.5212 28.8978 40.5691C28.8766 40.6322 28.8547 40.6959 28.8368 40.7589C28.819 40.822 28.7964 40.887 28.78 40.9508C28.7683 40.9939 28.7567 41.0371 28.7464 41.0803C28.7361 41.1234 28.7251 41.1687 28.7169 41.2118C28.6868 41.3457 28.6639 41.4774 28.6484 41.6072C28.6402 41.6668 28.632 41.7271 28.6272 41.7853C28.6121 41.9368 28.6039 42.0868 28.6039 42.2348C28.6039 42.3033 28.6039 42.3718 28.6087 42.4404C28.6087 42.4835 28.6135 42.5253 28.6169 42.5685C28.6337 42.7869 28.6688 43.0035 28.7217 43.216C28.7354 43.2763 28.7519 43.3345 28.7704 43.3928C28.7916 43.4709 28.8183 43.5497 28.8471 43.6278C28.9473 43.8971 29.0757 44.155 29.2301 44.3973C29.25 44.4274 29.2699 44.4589 29.2918 44.4891C29.3137 44.5192 29.335 44.5507 29.3603 44.5823C29.4452 44.6979 29.5399 44.8061 29.6433 44.9057C29.652 44.9159 29.6617 44.9253 29.6721 44.9338C29.7118 44.9721 29.755 45.0071 29.7982 45.042C29.8243 45.0633 29.8515 45.0832 29.8797 45.1016C29.8831 45.1055 29.8873 45.1085 29.892 45.1105C29.9623 45.1607 30.0368 45.2047 30.1147 45.2421C30.1606 45.266 30.208 45.2871 30.2565 45.3051C30.2785 45.3133 30.2997 45.3202 30.3216 45.327C30.3436 45.3339 30.3531 45.3366 30.3682 45.3414C30.3833 45.3462 30.4148 45.3551 30.4367 45.3599C30.5008 45.3754 30.5658 45.3866 30.6313 45.3935L30.6882 45.3983C30.7197 45.3983 30.7533 45.3983 30.7862 45.3983C31.0778 45.3966 31.3629 45.3123 31.6084 45.1551C31.8212 45.0252 32.0127 44.8634 32.1764 44.6754C32.1881 44.8721 32.1894 45.0626 32.1833 45.2599Z" fill="#FFE8CC"/>
<path d="M17.678 62.9384C15.2997 62.9416 12.97 62.2653 10.9632 60.989L10.7398 60.8431C8.99654 59.7022 7.57815 58.1296 6.62252 56.2783C6.29226 55.6295 5.94418 54.9868 5.62763 54.3311C5.52074 54.1118 5.42961 53.9083 5.3467 53.7082C5.30696 53.613 5.27065 53.5225 5.2357 53.4287C5.07499 53.0116 4.93774 52.5859 4.82459 52.1535C4.80541 52.0768 4.78485 51.9959 4.76567 51.9151C4.63414 51.3672 4.53915 50.8112 4.48131 50.2508C4.47309 50.1672 4.46555 50.0911 4.46007 50.0144C4.445 49.8513 4.43404 49.6924 4.4265 49.5348C4.4265 49.5231 4.4265 49.482 4.4265 49.482V49.4758C4.4217 49.3881 4.41896 49.3011 4.41691 49.212V49.1819V49.1613C4.41691 49.051 4.41211 48.9407 4.41211 48.829C4.41211 48.5467 4.41965 48.2507 4.43609 47.9499C4.47918 47.2229 4.56751 46.4994 4.70057 45.7834C4.73004 45.6176 4.76361 45.4552 4.79787 45.29C5.12569 44.141 5.33823 42.9621 5.43235 41.7709C5.48237 41.8319 5.53444 41.8888 5.58994 41.945C5.61667 41.971 5.64202 41.995 5.66874 42.0183C5.7597 42.1013 5.85809 42.1759 5.96268 42.241C5.99491 42.2628 6.02856 42.2825 6.06341 42.2999C6.14942 42.3461 6.23847 42.3864 6.32994 42.4205L6.34639 42.426C6.41157 42.449 6.47817 42.4677 6.54578 42.4821C6.59732 42.4944 6.64946 42.504 6.702 42.5109H6.72118C6.76641 42.5164 6.80546 42.5198 6.84383 42.5226C6.8822 42.5253 6.92537 42.5267 6.96854 42.5267C7.92779 42.5267 8.65067 41.897 9.12413 40.6541L9.13715 40.6171L9.16113 40.5431L9.20155 40.4465C9.20155 40.4465 9.20155 40.3868 9.20155 40.3834C9.20704 40.3574 9.21389 40.3266 9.22074 40.2916L9.23033 40.2409C9.2502 40.1395 9.26802 40.0354 9.28515 39.9072C9.28994 39.8743 9.29542 39.8339 9.29954 39.7914C9.30844 39.7311 9.31529 39.6647 9.32215 39.5982L9.329 39.5242C9.33516 39.4666 9.34065 39.3933 9.34613 39.3186V39.2947V39.2762C9.35092 39.2076 9.35435 39.1323 9.35709 39.0569V39.0274C9.35709 39.0041 9.35709 38.9843 9.35709 38.9644C9.35709 38.8856 9.35709 38.7986 9.35709 38.7075C9.35709 38.6835 9.35709 38.6588 9.35709 38.6341C9.35709 38.5053 9.35298 38.382 9.34476 38.2552C9.33075 37.9799 9.30285 37.7055 9.26117 37.433C9.22759 37.1939 9.17894 36.9424 9.11933 36.6916C9.09124 36.5793 9.06726 36.482 9.03985 36.3826C8.96647 36.1119 8.87887 35.8452 8.77742 35.5837C8.73631 35.4761 8.69315 35.3672 8.64587 35.2589L8.61641 35.1904C8.60133 35.1555 8.58626 35.1219 8.5705 35.0876C8.51705 34.9691 8.46361 34.8581 8.40948 34.756C8.26788 34.478 8.11166 34.2076 7.9415 33.9461C6.38065 31.2862 5.04728 27.6499 5.54678 26.4646C5.64538 26.2432 5.77278 26.0359 5.92568 25.8479C5.97091 25.9014 6.02366 25.9685 6.08259 26.0535C6.29774 26.3467 6.87535 27.0004 7.79144 27.0004C8.46566 27.0004 9.30707 26.6085 9.64829 25.5087C9.97729 24.4611 10.202 23.3836 10.3191 22.2918L10.9138 22.298C11.2145 23.3438 11.6302 24.3531 12.1533 25.3073C12.2863 25.5526 12.4349 25.7814 12.5781 26.0028L12.6021 26.0398C12.7257 26.2191 12.84 26.4045 12.9447 26.5954C13.454 27.565 13.8189 28.6037 14.028 29.6788C14.0423 29.7755 14.0517 29.873 14.0561 29.9707V29.9919C14.115 30.7518 14.2356 32.3106 15.6861 32.8957C15.9408 33 16.2133 33.0537 16.4885 33.054C17.7431 33.054 18.5441 32.0105 18.777 30.9765C18.8911 30.4428 18.943 29.8976 18.9319 29.3519C18.9293 28.9499 18.9053 28.5483 18.8599 28.1488C19.0298 28.2778 19.2136 28.3872 19.4081 28.4749C19.7424 28.6269 20.1049 28.7069 20.4722 28.7099C21.7302 28.7099 22.7504 27.7027 23.0108 26.2042L22.9978 26.2563C23.0505 26.035 23.2718 24.9914 23.2246 23.4559C23.4864 23.5467 23.7615 23.593 24.0386 23.593C24.4935 23.593 26.0174 23.4381 26.6484 21.4579C26.8419 21.0436 27.0034 20.615 27.1315 20.1759C27.1021 20.3762 27.06 20.5744 27.0054 20.7693C26.658 22.0026 26.1147 23.2922 25.387 24.6125C25.2328 24.8934 25.054 25.1641 24.8649 25.4512L24.8382 25.4916C24.4771 26.0398 24.1084 26.6023 23.8227 27.2779C23.5233 27.9827 23.2811 28.7104 23.0985 29.454C22.7148 31.0169 22.3167 33.9016 23.9584 35.6577C24.5182 36.2579 25.1301 36.384 25.5446 36.384C25.942 36.384 26.9417 36.247 27.633 34.9705C27.7873 34.6839 27.9077 34.3804 27.9921 34.066C28.3008 34.9154 28.5421 35.7878 28.7136 36.6752C28.9417 37.8297 28.8465 38.9473 28.4395 39.9072C28.4176 39.9593 28.395 40.0121 28.3744 40.0648C28.3538 40.1176 28.3367 40.1607 28.3189 40.2094L28.3079 40.2402C28.2922 40.282 28.2771 40.3231 28.2627 40.3642C28.2387 40.4328 28.2154 40.5013 28.1942 40.5698C28.173 40.6383 28.149 40.7178 28.1291 40.7911C28.1168 40.8377 28.1031 40.8884 28.0914 40.9384L28.0805 40.9871C28.0722 41.02 28.0647 41.0522 28.0585 41.0844C28.025 41.2344 27.9982 41.3852 27.9797 41.5318C27.9708 41.5962 27.9612 41.6688 27.9551 41.7373C27.9379 41.9059 27.929 42.0799 27.929 42.2437C27.929 42.3225 27.929 42.3999 27.9352 42.4794C27.9352 42.5226 27.94 42.5692 27.9441 42.6164C27.9631 42.8725 28.0037 43.1264 28.0654 43.3756C28.0818 43.4441 28.1017 43.5168 28.1229 43.5867C28.1462 43.6682 28.1736 43.7525 28.212 43.8607C28.3297 44.1771 28.4806 44.48 28.6622 44.7645L28.6827 44.796C28.7006 44.8234 28.7191 44.8508 28.7376 44.8776C28.7561 44.9043 28.7876 44.9461 28.8136 44.9838C28.9169 45.1233 29.0315 45.2542 29.1562 45.375C29.1754 45.3956 29.1953 45.4147 29.2158 45.4339C29.2658 45.4798 29.3186 45.5237 29.3714 45.5662C29.396 45.586 29.4214 45.6052 29.4467 45.6244L29.5104 45.6861L29.5707 45.7094C29.6471 45.7599 29.7265 45.8056 29.8085 45.8464C29.8752 45.8802 29.9439 45.9102 30.0141 45.9362L30.099 45.9656C30.1196 45.9725 30.1401 45.9793 30.1607 45.9848L30.1792 45.9903C30.2169 46.0013 30.2546 46.0115 30.2922 46.0198C30.3802 46.0405 30.4695 46.0554 30.5595 46.0643L30.6499 46.0718C30.6951 46.0718 30.7383 46.0759 30.7821 46.0759C31.0119 46.0764 31.2402 46.0401 31.4584 45.9684C31.4502 46.041 31.4406 46.1143 31.4303 46.1876L31.4057 46.3596C31.3639 46.6234 31.3097 46.9119 31.2453 47.2058L31.2015 47.4004L31.1891 47.4532C31.1693 47.534 31.1501 47.6156 31.1295 47.6964C31.1124 47.7649 31.0953 47.8334 31.0781 47.8937L31.0131 48.1377C30.9932 48.2171 30.9719 48.2877 30.9514 48.3583C30.9274 48.4467 30.9062 48.52 30.8829 48.594L30.8534 48.6899V48.6954C30.8164 48.8201 30.7794 48.9448 30.741 49.0681C30.678 49.2689 30.6136 49.4717 30.5478 49.6745C30.1504 50.8983 30.1367 52.1857 29.8304 53.4273C29.5658 54.5072 29.157 55.5467 28.6149 56.5175C28.5021 56.7208 28.3826 56.9208 28.2566 57.1177C28.2031 57.202 28.149 57.2856 28.0914 57.3699C26.9486 59.0839 25.4 60.4891 23.5833 61.4606C21.7667 62.4321 19.7381 62.9397 17.678 62.9384ZM16.7406 21.1701C16.6689 21.0331 16.5947 20.8961 16.518 20.759C16.3261 20.2684 15.2401 17.2735 16.1507 14.5924C16.242 14.3873 16.3569 14.1937 16.4933 14.0154L17.665 15.3426C17.0613 17.4153 16.7537 19.3633 16.7406 21.1701Z" fill="#FF8A00"/>
<path d="M17.6775 62.2717C15.4515 62.2743 13.27 61.6482 11.3841 60.4655L10.9511 60.1798C9.22167 59.0396 7.87459 57.3582 6.977 55.5082C6.78583 55.1128 6.57206 54.7298 6.37678 54.3393L6.33635 54.2577L6.32539 54.242C6.29182 54.1735 6.25687 54.109 6.22604 54.0412C6.126 53.8357 6.03967 53.6431 5.96224 53.454C5.92319 53.3629 5.89372 53.2813 5.85946 53.1971C5.70793 52.7999 5.57891 52.3946 5.47302 51.9829C5.4552 51.9144 5.43602 51.8363 5.41752 51.7602C5.29307 51.2396 5.20289 50.7113 5.14756 50.1788C5.1407 50.1055 5.13317 50.0329 5.12769 49.9609C5.1133 49.8013 5.1037 49.6533 5.09617 49.5046V49.4258V49.4114C5.09617 49.3429 5.09 49.2682 5.08932 49.1956V49.1271C5.08932 49.027 5.08521 48.9263 5.08521 48.8242C5.08521 48.5501 5.09343 48.2692 5.1085 47.9807C5.14954 47.2822 5.23467 46.587 5.36339 45.8992C5.39011 45.745 5.42026 45.5984 5.45178 45.4497C5.68173 44.6417 5.85595 43.8189 5.97321 42.9871C6.015 43.0049 6.05885 43.0227 6.10339 43.0392L6.12463 43.0474C6.21564 43.0794 6.30855 43.1057 6.40282 43.1262C6.47133 43.1427 6.53985 43.155 6.61522 43.1659L6.64332 43.1694C6.71183 43.1776 6.76254 43.1824 6.81461 43.1858C6.86669 43.1892 6.91876 43.1906 6.97563 43.1906C7.84308 43.1906 9.03119 42.7918 9.75337 40.8898L9.77872 40.8212L9.7938 40.7733L9.87396 40.5821V40.4602L9.89315 40.3629C9.9137 40.2573 9.93358 40.1381 9.95276 39.997C9.95756 39.9668 9.96372 39.9216 9.9692 39.8723C9.97811 39.8079 9.98565 39.7352 9.9925 39.6667L10 39.5811C10.0062 39.5297 10.0124 39.4488 10.0185 39.3639L10.022 39.3159V39.2947C10.0261 39.2261 10.0288 39.1576 10.0322 39.0816V39.0398C10.0322 39.0206 10.0322 38.9911 10.0322 38.9617C10.0322 38.8931 10.0322 38.8006 10.0322 38.7047C10.0322 38.6752 10.0322 38.6444 10.0322 38.6143C10.0322 38.4772 10.0274 38.3443 10.0192 38.2121C10.0055 37.9311 9.97469 37.631 9.92946 37.3282C9.89315 37.0726 9.84107 36.8026 9.77598 36.5306C9.74583 36.408 9.72048 36.3045 9.69102 36.1997C9.61214 35.9075 9.51768 35.6198 9.40804 35.3377C9.36419 35.2233 9.31759 35.1061 9.26621 34.9883L9.23469 34.9197C9.21893 34.8834 9.2018 34.8444 9.18398 34.806C9.1278 34.6813 9.0675 34.5573 9.00858 34.4449C8.85971 34.1531 8.69573 33.8693 8.5173 33.5946C7.00167 31.008 6.06022 28.1426 6.1123 27.0333C6.58288 27.4364 7.18096 27.6599 7.80059 27.6643C8.67009 27.6643 9.8445 27.1504 10.294 25.704C10.4841 25.104 10.6388 24.4934 10.7572 23.8752C10.9956 24.4731 11.2702 25.0559 11.5794 25.6204C11.724 25.887 11.8788 26.1268 12.0289 26.3584L12.0542 26.3967C12.1693 26.5708 12.2838 26.7434 12.366 26.8997C12.8448 27.811 13.1881 28.7874 13.3849 29.798C13.391 29.8316 13.3979 29.9398 13.4027 30.0035V30.0262C13.4664 30.8525 13.6144 32.7669 15.4479 33.5055C15.7819 33.6417 16.1391 33.7115 16.4997 33.7111C18.1215 33.7111 19.1438 32.4092 19.4378 31.1149C19.5637 30.5297 19.6211 29.9319 19.6091 29.3334C19.6091 29.3245 19.6091 29.2923 19.6091 29.2375C19.8938 29.3206 20.1888 29.363 20.4854 29.3636C20.9088 29.3635 21.3273 29.2734 21.7133 29.0993C22.0992 28.9251 22.4437 28.671 22.7239 28.3536C22.628 28.6592 22.541 28.9703 22.4649 29.2786C22.049 30.9731 21.629 34.1112 23.4845 36.0969C24.2074 36.8718 25.0111 37.0342 25.5579 37.0342C26.0046 37.0342 27.0337 36.9061 27.8608 35.8434C27.938 36.1499 28.0088 36.4651 28.0732 36.7889C28.2753 37.8112 28.1944 38.7938 27.8382 39.6304C27.8135 39.6873 27.7881 39.7469 27.7648 39.8058C27.7463 39.8538 27.7237 39.9127 27.7032 39.9689L27.6943 39.9922C27.6771 40.0395 27.66 40.0854 27.6442 40.1292C27.6175 40.2073 27.5922 40.282 27.5702 40.3567C27.5483 40.4314 27.5189 40.5239 27.4969 40.6068C27.4832 40.6582 27.4681 40.7157 27.4544 40.7733L27.4435 40.8219C27.4346 40.8589 27.425 40.8987 27.4168 40.9391C27.3818 41.0953 27.3482 41.2659 27.3304 41.4331C27.3208 41.5016 27.3099 41.5852 27.303 41.6674C27.2852 41.8483 27.2749 42.0464 27.2749 42.23C27.2749 42.3204 27.2749 42.4081 27.2818 42.4986C27.2818 42.5424 27.2873 42.5986 27.2914 42.6569C27.3128 42.9496 27.3586 43.2399 27.4284 43.525C27.4449 43.5935 27.4675 43.6805 27.4935 43.7641C27.5202 43.8587 27.5517 43.9553 27.5949 44.0745C27.7297 44.4378 27.9026 44.7858 28.1109 45.1126L28.1355 45.1502C28.1581 45.1838 28.1807 45.2188 28.204 45.2517C28.2273 45.2845 28.2554 45.3243 28.2863 45.3661C28.4071 45.5313 28.5414 45.6862 28.6878 45.8293C28.7172 45.8601 28.7474 45.8896 28.7796 45.9183C28.8289 45.9642 28.8933 46.0184 28.9591 46.0711L29.0194 46.1191L29.1496 46.2452L29.2764 46.2945C29.3542 46.3427 29.4345 46.3868 29.5169 46.4268C29.6025 46.4708 29.6906 46.5099 29.7807 46.5439C29.8176 46.5576 29.8547 46.5706 29.8917 46.5823C29.9286 46.5939 29.9526 46.6022 29.9828 46.6111H29.9937C30.0499 46.6275 30.1027 46.6419 30.1554 46.6529C30.2683 46.6793 30.3827 46.6983 30.498 46.7097L30.6227 46.7193H30.668C30.6474 46.8255 30.6248 46.9345 30.5994 47.0448L30.557 47.2339L30.5467 47.275C30.5275 47.3552 30.5083 47.4333 30.4884 47.5121C30.4686 47.5909 30.4556 47.6416 30.4405 47.6998L30.372 47.9438C30.3521 48.0212 30.335 48.0808 30.3178 48.1383L30.311 48.1616C30.2891 48.2432 30.2699 48.3103 30.2486 48.3782L30.1897 48.5693V48.5782C30.163 48.6694 30.1356 48.7605 30.1075 48.8523C30.0465 49.0483 29.9828 49.249 29.917 49.4498C29.8684 49.5998 29.817 49.7533 29.7642 49.9068C29.4011 50.9661 29.4326 52.1062 29.1777 53.1916C28.9296 54.2626 28.5305 55.293 27.9923 56.2516C27.8982 56.4174 27.7998 56.5807 27.697 56.7415C27.6477 56.8189 27.5977 56.8971 27.5442 56.9745C26.464 58.6027 24.9978 59.9384 23.2763 60.8626C21.5548 61.7868 19.6315 62.2709 17.6775 62.2717ZM23.738 25.9863C23.8339 25.4108 23.8887 24.8292 23.9018 24.2459C23.949 24.2459 23.9977 24.2459 24.047 24.2459C24.3331 24.2452 24.6177 24.2058 24.8932 24.1288L24.8117 24.2781C24.6705 24.5351 24.4986 24.7948 24.3177 25.0702L24.2903 25.1113C24.1073 25.3977 23.9196 25.6821 23.7401 25.9863H23.738ZM16.475 17.4126C16.424 16.6721 16.4873 15.9282 16.6628 15.207L16.9279 15.5078C16.7484 16.1532 16.597 16.7881 16.4737 17.4126H16.475Z" fill="#FFE8CC"/>
<path d="M17.6778 61.6057C15.6022 61.608 13.5672 61.0311 11.8016 59.94L11.1651 59.5159C10.3223 58.9534 9.56996 58.1942 8.9389 57.4062C8.43734 56.7793 8.03583 56.0804 7.66514 55.3698C7.29445 54.6593 6.88745 53.9426 6.58186 53.2005C6.54486 53.1128 6.51334 53.0409 6.48799 52.9662C6.3423 52.5901 6.21808 52.206 6.11594 51.8158C6.10018 51.7541 6.08168 51.6788 6.06455 51.6102C5.94595 51.1172 5.86034 50.6168 5.80829 50.1124C5.80144 50.0384 5.79527 49.9754 5.79047 49.9137C5.77608 49.7541 5.76649 49.615 5.75964 49.4745V49.3772V49.3567C5.75964 49.3005 5.75484 49.245 5.75416 49.1881V49.1086C5.75416 49.0182 5.75073 48.9236 5.75073 48.8277C5.75073 48.5687 5.75758 48.2967 5.77266 48.0192C5.81056 47.3491 5.89043 46.682 6.01179 46.0219C6.03714 45.88 6.06386 45.7478 6.09127 45.6149C6.25844 45.0261 6.39565 44.4292 6.50238 43.8265L6.54692 43.832C6.63942 43.843 6.70382 43.8491 6.76755 43.8526C6.83127 43.856 6.89568 43.8594 6.96625 43.8594C7.8474 43.8594 9.4617 43.5045 10.3668 41.129L10.4038 41.0248L10.41 41.0043L10.5299 40.7178V40.526L10.5374 40.4876C10.56 40.3739 10.582 40.241 10.606 40.0868C10.6094 40.0621 10.6169 40.01 10.6231 39.9497C10.632 39.8812 10.6402 39.8079 10.6484 39.7339L10.6567 39.6373C10.6615 39.5941 10.669 39.5037 10.6758 39.4091L10.6806 39.3406V39.3153C10.6848 39.2467 10.6875 39.1782 10.6902 39.1097V39.0652C10.6902 39.0378 10.6902 38.9967 10.6902 38.9617C10.6902 38.9035 10.6902 38.8062 10.6902 38.7048C10.6902 38.6698 10.6902 38.6363 10.6902 38.5986C10.6902 38.4506 10.6841 38.3108 10.6752 38.1703C10.6591 37.8551 10.6271 37.5409 10.5792 37.2289C10.5409 36.9548 10.4854 36.6677 10.4155 36.3758C10.3826 36.2388 10.3552 36.1333 10.325 36.0223C10.24 35.7088 10.1385 35.4 10.0208 35.0973C9.97421 34.976 9.92351 34.8499 9.8687 34.7232L9.83512 34.6478C9.81936 34.6101 9.79949 34.5663 9.77962 34.5224C9.7207 34.3922 9.65355 34.2545 9.58914 34.1312C9.43335 33.8257 9.26205 33.5284 9.07594 33.2404C7.97553 31.3596 7.25403 29.4575 6.94295 28.2105C7.21946 28.2869 7.50502 28.3256 7.7919 28.3256C8.8882 28.3256 10.3648 27.6897 10.9218 25.8966C10.9218 25.8891 10.9294 25.8733 10.9369 25.85C10.952 25.8788 10.9677 25.9076 10.9835 25.9363C11.1397 26.2248 11.3021 26.4749 11.4583 26.7175L11.4837 26.7558C11.5919 26.9196 11.6988 27.0806 11.7646 27.206C12.2111 28.0556 12.5321 28.9654 12.7177 29.907C12.7177 29.9303 12.728 30.0673 12.728 30.0673C12.7965 30.9382 12.9719 33.2274 15.1892 34.1222C15.6025 34.2907 16.0447 34.3773 16.491 34.3771C18.478 34.3771 19.7265 32.8129 20.0786 31.2623C20.1688 30.8565 20.2261 30.444 20.2499 30.0289C20.3253 30.0331 20.4014 30.0358 20.4767 30.0358C20.8769 30.0364 21.2745 29.9706 21.6532 29.8412C21.2914 31.7433 21.166 34.6067 22.9893 36.556C23.8753 37.5057 24.8701 37.7051 25.5492 37.7051C26.2244 37.6984 26.8834 37.4971 27.4471 37.1254C27.5759 37.9415 27.4971 38.715 27.2162 39.3728C27.1895 39.4352 27.1621 39.501 27.136 39.566C27.1162 39.6161 27.0901 39.6839 27.0675 39.7483L27.0614 39.7641C27.0415 39.8168 27.0237 39.8668 27.0059 39.9169C26.9757 40.0059 26.9476 40.0888 26.923 40.1711C26.8983 40.2533 26.8688 40.3472 26.8442 40.4451C26.8291 40.5 26.812 40.565 26.7969 40.6301L26.7852 40.6808C26.7756 40.7192 26.7647 40.7679 26.7551 40.8179C26.7181 40.981 26.6866 41.1728 26.6612 41.3585C26.6509 41.427 26.6386 41.5257 26.6304 41.6202C26.6105 41.8169 26.6002 42.0313 26.6002 42.2369C26.6002 42.3383 26.6002 42.437 26.6071 42.5384C26.6071 42.5815 26.6133 42.6473 26.6187 42.7152C26.6437 43.0451 26.6961 43.3724 26.7756 43.6936C26.7921 43.7621 26.8181 43.8622 26.851 43.9677C26.8839 44.0732 26.914 44.1732 26.9627 44.3103C27.1147 44.7206 27.31 45.1136 27.5451 45.4826L27.5732 45.5258C27.6006 45.5669 27.6287 45.608 27.6568 45.6484C27.6746 45.6745 27.7082 45.7217 27.7452 45.7711C27.8852 45.9616 28.0401 46.1408 28.2084 46.3069C28.2476 46.3471 28.2881 46.3862 28.3296 46.4241C28.3776 46.4693 28.4557 46.5344 28.5352 46.5981L28.5784 46.6324L28.7771 46.8263L28.9771 46.9044C29.0573 46.9517 29.1395 46.9955 29.2211 47.0353C29.3244 47.0868 29.4305 47.1326 29.539 47.1723C29.5856 47.1894 29.6308 47.2052 29.676 47.2196C29.7213 47.234 29.7569 47.2463 29.798 47.2579L29.8576 47.2751C29.8508 47.3032 29.8439 47.3312 29.8364 47.3593C29.8199 47.4279 29.8055 47.484 29.7911 47.5375L29.7226 47.7821C29.7034 47.8568 29.689 47.9061 29.6747 47.9555L29.6651 47.989C29.6425 48.0706 29.6246 48.1315 29.6055 48.1946L29.5178 48.481V48.4926C29.5006 48.5509 29.4828 48.6091 29.465 48.6667C29.4054 48.8565 29.3423 49.0552 29.2773 49.2539C29.23 49.4005 29.18 49.5506 29.1279 49.7013C28.7572 50.7805 28.7476 51.9336 28.492 53.0388C28.2539 54.1151 27.8538 55.1489 27.3053 56.105C27.2482 56.2028 27.1893 56.2994 27.1285 56.3949C27.084 56.4634 27.0374 56.5374 26.988 56.61C25.9677 58.1452 24.584 59.4045 22.9597 60.276C21.3355 61.1476 19.5211 61.6043 17.6778 61.6057Z" fill="#FF8A00"/>
<path d="M32.9656 43.4229C32.7772 41.8306 31.9132 40.3882 31.9481 38.7486C31.955 38.4307 31.9577 37.8894 32.2078 37.6379C31.2719 38.5739 31.2349 40.0134 31.4651 41.2255C31.6535 42.2266 32.2332 43.6525 31.1101 44.3507C30.4469 44.7618 29.9261 43.8059 29.7398 43.2996C29.4068 42.3938 29.5651 41.3989 29.9364 40.5314C30.4962 39.2186 30.588 37.7496 30.3099 36.3518C29.9529 34.5477 29.3636 32.7203 28.3859 31.1513C27.5314 29.7809 27.1799 27.7651 27.465 26.1727C27.5527 25.6759 27.7246 24.9353 28.1241 24.5735C27.01 25.5793 26.4968 26.8675 26.2686 27.9747C25.9671 29.4458 26.5119 30.8998 26.5598 32.3675C26.5804 32.9903 26.5235 33.6351 26.222 34.1914C25.9856 34.6279 25.5841 35.0136 25.1511 34.5464C24.0733 33.3932 24.3433 31.2047 24.6797 29.8302C24.8424 29.1708 25.0573 28.5254 25.3224 27.9001C25.7054 26.997 26.3433 26.2378 26.8147 25.3834C27.5444 24.0562 28.1611 22.657 28.5722 21.201C29.5418 17.7751 27.3533 13.1521 27.3533 13.1521C26.1199 9.3658 27.5047 8.66965 27.5664 8.64156C27.5664 8.6717 27.9179 8.94167 27.9713 8.95948C28.1034 9.00338 28.2458 9.0053 28.379 8.96496C29.2697 8.70802 29.217 7.50209 29.2519 6.77922C29.2975 5.70799 29.1248 4.63867 28.7442 3.63628C27.6746 0.769463 27.9905 0 27.9905 0C27.3807 0.591315 27.3738 1.54098 27.5239 2.32004C27.6054 2.74005 27.8171 3.11006 27.9186 3.52459C28.0755 4.16593 28.2899 5.04502 27.9007 5.63839C27.8569 5.70691 27.3444 6.24477 27.3355 6.24477C26.2666 4.83398 25.3669 6.62917 25.3669 6.62917C24.1692 9.79404 25.8801 15.1412 25.8801 15.1412C26.3947 18.5624 25.1538 20.8509 25.1538 20.8509C24.7475 22.3055 23.7629 21.9204 23.7629 21.9204C21.967 19.782 23.2148 17.7778 23.2148 17.7778C24.9819 18.5493 25.1538 14.7281 25.1538 14.7281C24.9819 9.96602 22.0308 6.60793 22.0308 6.60793C23.3532 12.8308 22.6269 14.4348 22.6269 14.4348C21.8046 13.8586 21.301 14.628 21.301 14.628C19.7183 17.1516 21.1291 20.4014 21.1291 20.4014C22.0273 23.5245 21.4292 25.9199 21.4292 25.9199C21.3079 26.616 20.8858 27.354 20.0814 26.9922C19.3853 26.6791 19.1406 25.7417 18.9255 25.0833C17.9347 22.0568 18.3643 18.6891 19.2469 15.6962C21.4723 8.16741 18.1362 4.78876 18.1362 4.78876C19.7621 9.32331 17.623 12.8445 17.623 12.8445C15.91 10.9054 14.628 14.0422 14.628 14.0422C13.4022 17.6051 15.0563 21.4559 15.0563 21.4559C17.3667 25.5622 17.3235 29.3616 17.3235 29.3616C17.3333 29.781 17.2947 30.2001 17.2084 30.6106C17.1166 31.0122 16.7932 31.5884 16.2985 31.3883C15.6133 31.1102 15.736 29.9446 15.6243 29.365C15.3845 28.1361 14.967 26.9488 14.3848 25.8404C14.145 25.3834 13.825 24.9757 13.5804 24.5276C11.2638 20.2746 12.2648 17.0385 12.2963 16.9385C11.5481 17.7326 11.2919 21.5772 11.2919 21.5772C11.2069 19.697 9.52407 16.6383 9.52407 16.6383C7.45687 12.9589 8.85259 7.44248 8.85259 7.44248C5.39035 11.42 8.21332 17.7922 8.21332 17.7922C9.58369 20.657 8.11328 25.0195 8.11328 25.0195C7.88511 25.763 7.4137 25.1237 7.4137 25.1237C5.51848 22.4151 4.06452 25.8363 4.06452 25.8363C2.90998 28.577 6.58806 34.8197 6.58806 34.8197C8.30102 37.4282 7.61583 40.0799 7.61583 40.0799C6.94641 41.847 6.41813 40.2512 6.41813 40.2512C5.94672 33.1054 0 34.3052 0 34.3052C5.98783 35.8441 3.22037 44.9255 3.22037 44.9255C3.09182 45.5309 2.99394 46.1424 2.92711 46.7577C2.91204 46.8996 2.89902 47.0393 2.88737 47.1791C2.88804 47.1903 2.88804 47.2015 2.88737 47.2127C2.87709 47.3497 2.86887 47.4868 2.86065 47.619C2.84557 47.9091 2.83781 48.195 2.83735 48.4768C2.83735 48.5988 2.83735 48.7201 2.84215 48.84C2.84215 48.8921 2.84215 48.9435 2.84557 48.9935C2.85014 49.1305 2.85677 49.2655 2.86544 49.3984C2.87093 49.4827 2.87572 49.5677 2.88394 49.6526C2.90587 49.9377 2.93533 50.2193 2.9737 50.494C2.98878 50.6071 3.00591 50.7222 3.02372 50.8366C3.02372 50.8517 3.0292 50.8668 3.03057 50.8798C3.04565 50.9702 3.06072 51.06 3.07717 51.1484L3.11211 51.3279C3.13198 51.4314 3.15391 51.5335 3.17583 51.6376C3.19365 51.7212 3.21352 51.8027 3.23407 51.8829C3.24572 51.9364 3.25874 51.9891 3.27244 52.0412C3.29026 52.1193 3.31219 52.196 3.33206 52.2728L3.367 52.4009C3.38687 52.4694 3.40674 52.5379 3.4273 52.6065C3.5287 52.9491 3.64176 53.2773 3.76372 53.5972C3.78702 53.6589 3.81031 53.7206 3.83224 53.7802C3.84046 53.8021 3.84869 53.822 3.85691 53.8439C3.8802 53.9021 3.9035 53.9604 3.92885 54.0173C4.04396 54.2913 4.16547 54.5588 4.29337 54.8196C4.78122 55.8083 5.24509 56.8279 5.82682 57.7659C7.01949 59.6947 8.66536 61.3029 10.6213 62.4507C12.5772 63.5984 14.7839 64.2508 17.0495 64.3512C17.2591 64.3599 17.469 64.3645 17.6791 64.3649C20.2602 64.3641 22.7904 63.6474 24.9884 62.2946C27.1864 60.9417 28.9661 59.0057 30.1297 56.7018C30.5417 55.8755 30.8675 55.009 31.1019 54.1159C31.389 53.0422 31.5261 51.937 31.8556 50.8777C31.8885 50.7715 31.9241 50.6646 31.957 50.5564C32.005 50.405 32.0516 50.2535 32.0941 50.1001C32.1475 49.9233 32.201 49.7451 32.2523 49.567C32.2626 49.5272 32.2743 49.4868 32.2859 49.4484C32.3407 49.2504 32.3956 49.0524 32.449 48.8544C32.5024 48.6564 32.5607 48.4378 32.6141 48.2295C33.0288 46.663 33.148 45.033 32.9656 43.4229ZM32.1832 45.2599C32.1832 45.3017 32.1831 45.3449 32.1777 45.3887C32.1777 45.4572 32.1715 45.5217 32.166 45.5881V45.595C32.1599 45.6916 32.1509 45.7882 32.1414 45.8862C32.1276 46.015 32.1126 46.1431 32.0948 46.2726C32.0865 46.3309 32.0776 46.3877 32.0694 46.446C32.0228 46.7406 31.9666 47.0393 31.9015 47.3367L31.8563 47.5368C31.8316 47.6402 31.8063 47.7423 31.7796 47.8499C31.7631 47.9184 31.7446 47.9869 31.7261 48.0555C31.7049 48.1356 31.683 48.2158 31.6617 48.2973C31.6405 48.3789 31.6179 48.457 31.5932 48.5371C31.5685 48.6173 31.5487 48.6968 31.5247 48.7804C31.4781 48.9387 31.4315 49.0969 31.3835 49.2532C31.3184 49.4587 31.2534 49.6643 31.1869 49.8698C30.7888 51.0936 30.7799 52.3906 30.4688 53.6336C30.205 54.687 29.811 55.7034 29.2958 56.6593C29.1487 56.9334 28.9918 57.2015 28.8251 57.4637C28.7668 57.5549 28.7079 57.6453 28.6469 57.7378C26.727 60.6141 23.7542 62.6212 20.3688 63.3268C16.9833 64.0325 13.4562 63.3802 10.5471 61.5104C10.5471 61.5104 10.5436 61.5104 10.5423 61.5104C10.3936 61.5104 10.0626 61.187 9.94067 61.0993C9.73557 60.9504 9.53526 60.796 9.33976 60.6362C8.94823 60.3148 8.57513 59.9717 8.22222 59.6084C7.51585 58.8824 6.89512 58.0777 6.37222 57.2102C5.9337 56.4826 5.56644 55.6939 5.18685 54.9347C5.18685 54.9347 5.18685 54.9292 5.18206 54.9258C5.12861 54.8265 5.07859 54.7244 5.02857 54.6216C4.92511 54.4078 4.82302 54.1886 4.73189 53.9618C4.69078 53.8631 4.65035 53.7637 4.61198 53.6603C4.44468 53.2237 4.30194 52.7781 4.18443 52.3255C4.1625 52.2406 4.14057 52.1556 4.1207 52.0706C3.98297 51.4954 3.8834 50.9118 3.82265 50.3234C3.81443 50.2385 3.8062 50.1535 3.79935 50.0685C3.78428 49.902 3.77263 49.7301 3.76441 49.5567C3.76441 49.5423 3.76441 49.5252 3.76441 49.5101C3.75893 49.4156 3.7555 49.3203 3.75413 49.2237C3.75413 49.2086 3.75413 49.1956 3.75413 49.1805C3.75413 49.0641 3.74865 48.9476 3.74865 48.829C3.74865 48.5323 3.75687 48.2281 3.774 47.9143C3.81778 47.1588 3.90932 46.4068 4.04807 45.6628C4.07959 45.4846 4.11659 45.3065 4.15496 45.1249C4.20293 44.9783 5.76035 39.7496 3.9083 36.2367C4.72093 36.9979 5.33554 38.2655 5.47052 40.3122L5.47874 40.4341L5.51574 40.5493C5.56079 40.6823 5.61528 40.8119 5.67881 40.9371C5.69731 40.9686 5.71376 41.0001 5.73226 41.0337C5.75076 41.0673 5.77063 41.0988 5.79187 41.1317C5.83477 41.2013 5.88263 41.2677 5.93507 41.3304C5.97519 41.3804 6.01796 41.4282 6.0632 41.4736C6.07797 41.489 6.09376 41.5034 6.11048 41.5167C6.17614 41.5784 6.24801 41.633 6.32494 41.6798C6.34084 41.6911 6.35756 41.7012 6.37496 41.71C6.4367 41.7434 6.50082 41.7723 6.56681 41.7963C6.61034 41.8113 6.65473 41.8236 6.69974 41.8333C6.73126 41.8415 6.76826 41.8463 6.79978 41.8518L6.88474 41.86C6.91283 41.86 6.94161 41.86 6.97107 41.86C7.95774 41.86 8.36885 40.7706 8.5052 40.4122L8.53741 40.3142C8.53741 40.3142 8.53741 40.3142 8.53741 40.3074C8.53915 40.2988 8.54144 40.2903 8.54426 40.282C8.54906 40.256 8.55933 40.2135 8.56893 40.1642C8.56893 40.1423 8.57715 40.119 8.58263 40.0957C8.59702 40.0203 8.61209 39.9271 8.62717 39.8175C8.63265 39.7839 8.63744 39.749 8.64087 39.7127C8.64909 39.6558 8.65594 39.5927 8.66211 39.529C8.66211 39.5091 8.66211 39.4907 8.66759 39.4708C8.67376 39.4023 8.67924 39.3392 8.68404 39.2693V39.2529C8.68883 39.1844 8.69226 39.1042 8.69569 39.0261C8.69569 39.0062 8.69569 38.9843 8.69569 38.9631C8.69569 38.8795 8.69569 38.7945 8.69569 38.7061C8.69569 38.6897 8.69569 38.6732 8.69569 38.6561C8.69569 38.5382 8.69569 38.4163 8.68404 38.2868C8.67239 38.0483 8.64704 37.7934 8.6073 37.529C8.57578 37.307 8.53261 37.0788 8.47574 36.8438C8.45244 36.7485 8.42915 36.654 8.40243 36.5574C8.33487 36.3077 8.25413 36.0619 8.16056 35.8208C8.12218 35.7208 8.08245 35.6214 8.03928 35.5214C8.01598 35.4693 7.99406 35.4179 7.97076 35.3679C7.92622 35.2679 7.87757 35.1664 7.82413 35.065C7.69035 34.8009 7.54189 34.5445 7.37944 34.2969C6.07759 32.0783 4.23307 27.8754 4.93744 26.2049C5.19233 25.6157 5.68361 25.0305 5.92685 25.0305C6.02346 25.0305 6.28041 25.1641 6.63328 25.6684C6.75661 25.837 7.16841 26.3317 7.79809 26.3317C8.01118 26.3317 8.72789 26.2563 9.02046 25.3039C9.06911 25.1607 10.1517 21.878 9.57546 18.9515C9.95848 19.8656 10.3086 20.8934 10.3415 21.6238L11.4378 21.6354C11.7248 22.8049 12.1641 23.9316 12.7444 24.9866C12.8726 25.223 13.0185 25.4491 13.1679 25.6759C13.3026 25.8719 13.427 26.0748 13.5406 26.2837C14.08 27.3104 14.4666 28.4103 14.6883 29.5486C14.7096 29.6792 14.7228 29.811 14.7281 29.9433C14.7836 30.6545 14.8733 31.8426 15.9429 32.2729C16.1183 32.3453 16.3061 32.3828 16.4958 32.3832C17.3831 32.3832 17.958 31.6 18.1348 30.8237C18.2367 30.3405 18.2827 29.8471 18.2718 29.3533C18.2718 29.2101 18.2883 25.3039 15.9114 21.0448C15.7497 20.6419 14.5006 17.3338 15.5249 14.3533C15.7545 13.8051 16.2629 13.1658 16.491 13.1658C16.539 13.1658 16.6891 13.2309 16.9076 13.4776L17.7621 14.4451L18.4356 13.3385C18.6585 12.9477 18.8481 12.5388 19.0022 12.1161C18.8852 13.2385 18.6622 14.3473 18.3362 15.4276C17.2119 19.2352 17.1029 22.5816 18.0211 25.3786L18.0759 25.5464C18.3109 26.2844 18.6692 27.4006 19.6915 27.8603C19.9401 27.9738 20.2097 28.034 20.4829 28.0371C21.4189 28.0371 22.1589 27.2704 22.3651 26.0829C22.3768 26.048 22.8297 24.174 22.372 21.5607C22.5577 21.9062 22.7793 22.2312 23.0332 22.5303L23.188 22.7153L23.4148 22.8036C23.6179 22.8788 23.8328 22.9167 24.0493 22.9153C24.494 22.9153 25.5649 22.7454 26.0364 21.2024C26.2878 20.6864 27.3135 18.3246 26.8154 14.9994L26.8038 14.9247L26.7805 14.8514C26.7757 14.8329 26.5372 14.0799 26.3091 13.0014C26.3509 13.1446 26.466 13.5043 26.466 13.5043L26.4906 13.5578C26.5126 13.6009 28.5147 17.9101 27.6554 20.942C27.2937 22.2212 26.7291 23.5621 25.9795 24.9243C25.8048 25.2422 25.6033 25.5458 25.4032 25.8486C25.0606 26.3687 24.7085 26.9052 24.444 27.528C24.1582 28.2001 23.927 28.8942 23.7526 29.6034C23.4011 31.0355 23.025 33.6659 24.4522 35.1932C24.8489 35.618 25.2683 35.7077 25.5519 35.7077C25.8945 35.7077 26.553 35.5707 27.0539 34.6436C27.5006 33.8214 27.5253 32.9307 27.5054 32.3353C27.4945 32.0219 27.4677 31.7093 27.4252 31.3986C27.4739 31.4856 27.5239 31.5706 27.5753 31.6521C28.3852 32.954 28.9895 34.5984 29.3746 36.5361C29.6295 37.8236 29.5191 39.0761 29.058 40.1587C29.0381 40.2053 29.0183 40.2519 28.9998 40.2957C28.9813 40.3396 28.9662 40.3807 28.9511 40.4225C28.9361 40.4643 28.9148 40.5212 28.8977 40.5691C28.8764 40.6322 28.8545 40.6959 28.8367 40.7589C28.8189 40.822 28.7963 40.8871 28.7798 40.9508C28.7682 40.9939 28.7565 41.0371 28.7463 41.0803C28.736 41.1234 28.725 41.1687 28.7168 41.2118C28.6866 41.3457 28.6638 41.4775 28.6483 41.6072C28.6401 41.6668 28.6318 41.7271 28.627 41.7853C28.612 41.9368 28.6037 42.0868 28.6037 42.2348C28.6037 42.3033 28.6037 42.3718 28.6085 42.4404C28.6085 42.4835 28.6133 42.5253 28.6168 42.5685C28.6336 42.7869 28.6686 43.0035 28.7216 43.216C28.7353 43.2763 28.7517 43.3345 28.7702 43.3928C28.7915 43.4709 28.8182 43.5497 28.847 43.6278C28.9471 43.8971 29.0755 44.155 29.23 44.3973C29.2499 44.4274 29.2697 44.4589 29.2917 44.4891C29.3136 44.5192 29.3348 44.5507 29.3602 44.5823C29.4451 44.6979 29.5398 44.8061 29.6432 44.9057C29.6519 44.9159 29.6615 44.9253 29.6719 44.9338C29.7117 44.9721 29.7549 45.0071 29.798 45.042C29.8241 45.0633 29.8513 45.0832 29.8796 45.1016C29.8829 45.1055 29.8872 45.1085 29.8919 45.1105C29.9622 45.1607 30.0367 45.2047 30.1146 45.2421C30.1605 45.266 30.2079 45.2871 30.2564 45.3051C30.2783 45.3134 30.2996 45.3202 30.3215 45.3271C30.3434 45.3339 30.353 45.3366 30.3681 45.3414C30.3832 45.3462 30.4147 45.3551 30.4366 45.3599C30.5007 45.3754 30.5657 45.3866 30.6312 45.3935L30.6881 45.3983C30.7196 45.3983 30.7532 45.3983 30.7861 45.3983C31.0776 45.3967 31.3627 45.3123 31.6083 45.1551C31.821 45.0252 32.0126 44.8634 32.1763 44.6754C32.1879 44.8721 32.1893 45.0626 32.1832 45.2599Z" fill="#FF8A00"/>
<path d="M15.8197 47.8457C15.6653 48.2454 15.4298 48.6088 15.128 48.913C14.8263 49.2172 14.4647 49.4556 14.0662 49.6131C13.6678 49.7706 13.241 49.8438 12.8128 49.8282C12.3846 49.8125 11.9643 49.7083 11.5783 49.5221C11.1924 49.336 10.8492 49.0719 10.5705 48.7465C10.2917 48.4211 10.0834 48.0414 9.95861 47.6315C9.83385 47.2216 9.79538 46.7903 9.84561 46.3648C9.89584 45.9392 10.0337 45.5287 10.2505 45.1591L15.8197 47.8457Z" fill="#FFE8CC"/>
<path d="M19.7888 47.8457C19.9432 48.2454 20.1787 48.6088 20.4804 48.913C20.7822 49.2172 21.1437 49.4556 21.5422 49.6131C21.9407 49.7706 22.3675 49.8438 22.7957 49.8282C23.2239 49.8125 23.6442 49.7083 24.0301 49.5221C24.4161 49.336 24.7592 49.0719 25.038 48.7465C25.3168 48.4211 25.5251 48.0414 25.6499 47.6315C25.7746 47.2216 25.8131 46.7903 25.7629 46.3648C25.7126 45.9392 25.5748 45.5287 25.358 45.1591L19.7888 47.8457Z" fill="#FFE8CC"/>
<path d="M25.1558 55.3938C25.1395 55.1325 25.0737 54.8767 24.9619 54.6401C24.9619 54.6401 24.8152 55.476 24.4767 56.0063C24.4767 56.0063 24.2753 55.587 23.5058 55.2314C23.5058 55.2314 23.0029 56.2448 22.7467 56.4647C22.4904 56.6847 22.5082 57.1341 22.5082 57.1341C22.5082 57.1341 21.5565 56.3482 21.007 56.116C21.007 56.116 20.5856 56.8258 20.2197 57.1691C19.8538 57.5124 19.6606 58.0489 19.6606 58.0489C19.6606 58.0489 19.2872 57.5329 17.9421 56.6593C16.5964 57.5329 16.223 58.0489 16.223 58.0489C16.223 58.0489 16.0305 57.513 15.6639 57.1691C15.2973 56.8251 14.8766 56.116 14.8766 56.116C14.3285 56.3482 13.3761 57.1341 13.3761 57.1341C13.3761 57.1341 13.3939 56.686 13.1369 56.4647C12.88 56.2434 12.3777 55.2314 12.3777 55.2314C11.6083 55.587 11.4068 56.0063 11.4068 56.0063C11.0684 55.476 10.9224 54.6401 10.9224 54.6401C10.7914 54.9188 10.7229 55.2228 10.7217 55.5308C10.5798 54.1077 10.7121 53.082 10.7977 52.616C10.7552 53.0032 10.7943 53.7891 11.4438 54.958C11.4438 54.958 12.0961 54.5914 12.412 54.294C12.412 54.294 12.8916 55.5404 13.5494 56.0584C14.0509 55.845 14.5295 55.5815 14.978 55.2718C14.978 55.2718 15.5454 56.2996 16.3415 56.9724C16.3415 56.9724 17.5132 56.2379 17.9442 55.7487C18.3745 56.2379 19.5468 56.9724 19.5468 56.9724C20.3423 56.3016 20.9104 55.2718 20.9104 55.2718C21.3582 55.5824 21.8361 55.847 22.3369 56.0618C22.9961 55.5438 23.4743 54.2975 23.4743 54.2975C23.7902 54.5948 24.4425 54.9614 24.4425 54.9614C25.0119 53.9336 25.1119 53.206 25.0996 52.7798C25.1804 53.3485 25.2832 54.3859 25.1558 55.3938Z" fill="#FFE8CC"/>
</svg>
