<svg width="146" height="64" viewBox="0 0 146 64" fill="none" xmlns="http://www.w3.org/2000/svg">
<path d="M37.7817 63.1461V62.1255C38.0059 62.2755 38.4929 62.3957 38.9698 62.3957C39.9052 62.3957 40.5043 61.956 40.5043 61.2157V60.8422H40.4483C40.3267 61.1124 39.7837 61.5906 38.9238 61.5906C37.8006 61.5906 36.5835 60.7483 36.5835 59.0631C36.5835 57.378 37.7993 56.5364 38.9238 56.5364C39.7837 56.5364 40.3267 57.0132 40.4483 57.2847H40.5043V56.6289H41.7606V61.132C41.7606 62.9948 40.2997 63.444 39.194 63.444C38.6341 63.4453 38.0715 63.3325 37.7817 63.1461ZM39.1771 60.468C39.8877 60.468 40.5334 59.9824 40.5334 59.0645C40.5334 58.1466 39.8877 57.6589 39.1771 57.6589C38.4666 57.6589 37.8182 58.1554 37.8182 59.0631C37.8182 59.9709 38.4733 60.468 39.1771 60.468Z" fill="#FF8A00"/>
<path d="M42.4902 59.0644C42.4902 57.3799 43.6979 56.5376 44.8306 56.5376C45.6999 56.5376 46.2625 57.0144 46.3841 57.286H46.4111V56.6301H47.6674V61.4979H46.4111V60.8434H46.3841C46.2625 61.1136 45.6999 61.5918 44.8306 61.5918C43.6979 61.5918 42.4902 60.7496 42.4902 59.0644ZM45.0832 60.4679C45.785 60.4679 46.4401 59.9823 46.4401 59.0644C46.4401 58.1465 45.785 57.6602 45.0832 57.6602C44.3814 57.6602 43.7249 58.1566 43.7249 59.0644C43.7249 59.9721 44.3801 60.4679 45.0832 60.4679Z" fill="#FF8A00"/>
<path d="M51.7242 58.727C51.7242 58.0353 51.3595 57.6605 50.8259 57.6605C50.2747 57.6605 49.8803 58.0353 49.8803 58.727V61.4962H48.6294V56.6284H49.8837V57.2566C50.1464 56.8439 50.5949 56.5359 51.2784 56.5359C51.8775 56.5359 52.4017 56.7878 52.7009 57.3464C52.9812 56.8972 53.5114 56.5359 54.3111 56.5359C55.3411 56.5359 56.0908 57.1809 56.0908 58.6696V61.4962H54.8271V58.727C54.8271 58.0353 54.4712 57.6605 53.9281 57.6605C53.3851 57.6605 52.9825 58.0353 52.9825 58.727V61.4962H51.7242V58.727Z" fill="#FF8A00"/>
<path d="M56.8115 59.0644C56.8115 57.4265 58.0273 56.5376 59.2735 56.5376C60.5196 56.5376 61.9137 57.4082 61.6408 59.5514H58.0003C58.1779 60.216 58.7574 60.5645 59.4862 60.5645C59.9637 60.5645 60.3845 60.4341 60.7405 60.1248L61.3126 60.7327C60.9073 61.2379 60.2069 61.5932 59.3471 61.5932C58.0097 61.5918 56.8115 60.6834 56.8115 59.0644ZM60.5264 58.6341C60.4514 57.9411 59.8712 57.5946 59.2822 57.5946C58.6933 57.5946 58.1401 57.9323 57.9793 58.6341H60.5264Z" fill="#FF8A00"/>
<path d="M61.9771 60.2258L62.978 59.9556C63.0712 60.2737 63.307 60.6013 63.7838 60.6013C64.1013 60.6013 64.4099 60.4419 64.4099 60.0961C64.4099 59.8624 64.2613 59.6908 63.877 59.5557L63.2779 59.3302C62.4721 59.0404 62.1358 58.5257 62.1358 57.9361C62.1358 57.0654 62.9031 56.542 63.8243 56.542C64.7024 56.542 65.3488 57.0378 65.5095 57.7861L64.5254 58.0394C64.3944 57.6463 64.1431 57.5247 63.8804 57.5247C63.5515 57.5247 63.3563 57.7118 63.3563 57.9455C63.3563 58.1482 63.4785 58.3292 63.8608 58.4609L64.4012 58.6635C65.0003 58.879 65.6554 59.2342 65.6554 60.0954C65.6554 61.068 64.8226 61.5928 63.8021 61.5928C62.8369 61.5922 62.1256 61.1234 61.9771 60.2258Z" fill="#FF8A00"/>
<path d="M36.5835 34.9529H40.3173V38.2409H36.5835V34.9529ZM36.5835 40.2475H40.3173V54.7409H36.5835V40.2475Z" fill="#FF8A00"/>
<path d="M58.8237 50.9501L61.8057 50.1396C62.084 51.0852 62.7811 52.0625 64.2015 52.0625C65.1471 52.0625 66.0704 51.5897 66.0704 50.557C66.0704 49.86 65.6239 49.3588 64.4818 48.9407L62.6966 48.272C60.3002 47.4082 59.2972 45.8756 59.2972 44.1195C59.2972 41.5272 61.5828 39.9663 64.3136 39.9663C66.9343 39.9663 68.8572 41.4441 69.3307 43.673L66.4047 44.4261C66.0143 43.255 65.2605 42.8923 64.4818 42.8923C63.5058 42.8923 62.9202 43.4502 62.9202 44.1465C62.9202 44.7605 63.2815 45.29 64.4257 45.6804L66.0413 46.293C67.8251 46.9347 69.7771 47.9937 69.7771 50.557C69.7771 53.4559 67.2956 55.0148 64.2575 55.0148C61.3876 55.0189 59.2702 53.6255 58.8237 50.9501Z" fill="#FF8A00"/>
<path d="M71.8955 34.9529H75.6293V38.2409H71.8955V34.9529ZM71.8955 40.2475H75.6293V54.7409H71.8955V40.2475Z" fill="#FF8A00"/>
<path d="M89.4545 54.7409V52.7902H89.3694C89.008 53.6007 87.3364 55.0191 84.7427 55.0191C81.3703 55.0191 77.7764 52.5106 77.7764 47.4949C77.7764 42.4792 81.3703 39.9693 84.7427 39.9693C87.3364 39.9693 89.008 41.391 89.3694 42.1982H89.4545V34.9529H93.1883V54.7429L89.4545 54.7409ZM85.4958 51.6751C87.5849 51.6751 89.5369 50.2256 89.5369 47.4949C89.5369 44.7641 87.5849 43.314 85.4958 43.314C83.4067 43.314 81.4547 44.7911 81.4547 47.4949C81.4547 50.1986 83.4054 51.6751 85.4958 51.6751Z" fill="#FF8A00"/>
<path d="M96.0322 34.9529H99.766V38.2409H96.0322V34.9529ZM96.0322 40.2475H99.766V54.7409H96.0322V40.2475Z" fill="#FF8A00"/>
<path d="M101.909 47.4944C101.909 42.5887 105.755 39.9688 109.546 39.9688C113.309 39.9688 117.182 42.5887 117.182 47.4944C117.182 52.4 113.309 55.0186 109.546 55.0186C105.759 55.0186 101.909 52.3993 101.909 47.4944ZM109.549 51.6475C111.638 51.6475 113.478 50.0873 113.478 47.4957C113.478 44.9041 111.638 43.3425 109.549 43.3425C107.46 43.3425 105.591 44.9034 105.591 47.4957C105.591 50.088 107.458 51.6475 109.549 51.6475Z" fill="#FF8A00"/>
<path d="M134.993 50.9501L137.974 50.1396C138.253 51.0852 138.95 52.0625 140.371 52.0625C141.32 52.0625 142.24 51.5897 142.24 50.557C142.24 49.86 141.793 49.3588 140.651 48.9407L138.866 48.272C136.47 47.4082 135.467 45.8756 135.467 44.1195C135.467 41.5272 137.752 39.9663 140.483 39.9663C143.104 39.9663 145.027 41.4441 145.5 43.673L142.574 44.4261C142.184 43.255 141.43 42.8923 140.651 42.8923C139.675 42.8923 139.09 43.4502 139.09 44.1465C139.09 44.7605 139.451 45.29 140.595 45.6804L142.211 46.293C143.995 46.9347 145.947 47.9937 145.947 50.557C145.947 53.4559 143.465 55.0148 140.427 55.0148C137.557 55.0189 135.44 53.6255 134.993 50.9501Z" fill="#FF8A00"/>
<path d="M56.6868 44.11C56.3578 41.9689 54.9212 40.0703 52.8287 39.4198C50.7187 38.7633 48.1291 38.7964 46.1386 39.8251C43.9773 40.9409 43.1553 43.496 43.1553 45.783V54.7979H47.1092V46.4321C47.1092 45.1488 47.5672 43.7061 48.8039 43.1151C49.8055 42.6355 51.0794 42.7963 51.8723 43.596C52.6065 44.339 52.8612 45.4196 52.8612 46.4328V54.7986H56.8131V45.783C56.8133 45.223 56.7711 44.6637 56.6868 44.11V44.11Z" fill="#FF8A00"/>
<path d="M119.455 49.6673C119.784 51.8084 121.22 53.707 123.312 54.3574C125.422 55.0139 128.013 54.9808 130.003 53.9522C132.164 52.8357 132.986 50.2805 132.986 47.9936V38.98H129.032V47.3458C129.032 48.6291 128.575 50.0712 127.338 50.6622C126.336 51.1417 125.062 50.981 124.269 50.1813C123.535 49.4383 123.281 48.3576 123.281 47.3445V38.98H119.329V47.9942C119.328 48.5543 119.371 49.1136 119.455 49.6673V49.6673Z" fill="#FF8A00"/>
<path d="M31.7795 44.6151C31.7795 44.6563 31.7795 44.6988 31.7741 44.7421C31.7741 44.8096 31.768 44.8731 31.7626 44.9386V44.9454C31.7566 45.0406 31.7478 45.1358 31.7383 45.2324C31.7248 45.3594 31.71 45.4857 31.6924 45.6134C31.6843 45.6708 31.6755 45.7268 31.6674 45.7843C31.6215 46.0747 31.5661 46.3692 31.5019 46.6623L31.4573 46.8595C31.433 46.9615 31.408 47.0622 31.3817 47.1682C31.3655 47.2358 31.3473 47.3033 31.329 47.3708C31.3081 47.4499 31.2865 47.5289 31.2655 47.6093C31.2446 47.6896 31.2223 47.7666 31.198 47.8457C31.1737 47.9247 31.1541 48.003 31.1304 48.0854C31.0845 48.2415 31.0386 48.3975 30.9913 48.5515C30.9271 48.7541 30.863 48.9567 30.7975 49.1594C30.638 49.6597 30.5199 50.1723 30.4442 50.6919C30.3706 51.1775 30.3659 51.678 30.2639 52.1583C30.1538 52.6709 30.016 53.1903 29.8546 53.6908C29.5227 54.72 29.063 55.7034 28.4861 56.6181L28.4693 56.6451C28.4118 56.7349 28.3538 56.8241 28.2936 56.9153C26.4011 59.7506 23.4706 61.7291 20.1334 62.4247C16.7962 63.1203 13.3193 62.4773 10.4516 60.6342C10.4516 60.6342 10.4482 60.6342 10.4469 60.6342C8.24409 59.2139 6.52063 57.1625 5.50138 54.7478C5.50138 54.7478 5.50138 54.7478 5.50138 54.7431C5.44532 54.6479 5.38994 54.5526 5.33523 54.454C5.28052 54.3554 5.22513 54.2568 5.17447 54.1555C5.17447 54.1555 5.17447 54.1501 5.16975 54.1467C5.11706 54.0488 5.06776 53.9481 5.01845 53.8468C4.91646 53.6361 4.81582 53.42 4.72599 53.1964C4.68547 53.0991 4.64562 53.0012 4.60779 52.8992C4.44047 52.4679 4.2975 52.0275 4.17957 51.5801C4.15796 51.4963 4.13634 51.4126 4.11676 51.3288C3.98099 50.7618 3.88284 50.1865 3.82295 49.6065C3.81484 49.5227 3.80674 49.439 3.79998 49.3552C3.78512 49.1911 3.77364 49.0216 3.76553 48.8507C3.76553 48.8365 3.76553 48.8196 3.76553 48.8048C3.76013 48.7116 3.75675 48.6177 3.7554 48.5224C3.7554 48.5076 3.7554 48.4947 3.7554 48.4799C3.7554 48.3651 3.75 48.2502 3.75 48.1334C3.75 47.8409 3.75811 47.541 3.77499 47.2317C3.81814 46.4869 3.90838 45.7456 4.04516 45.0122C4.07623 44.8366 4.1127 44.661 4.15053 44.482C4.19781 44.3375 5.73305 39.1833 3.90737 35.7204C4.70843 36.4708 5.31429 37.7203 5.44735 39.7378L5.45545 39.8581L5.49193 39.9715C5.53633 40.1026 5.59005 40.2304 5.65268 40.3538C5.67091 40.3849 5.68712 40.416 5.70536 40.4491C5.7236 40.4822 5.74318 40.5132 5.76412 40.5456C5.80641 40.6142 5.85359 40.6797 5.90529 40.7415C5.94483 40.7908 5.98699 40.8379 6.03159 40.8827C6.04614 40.8979 6.06171 40.9121 6.0782 40.9252C6.14292 40.986 6.21376 41.0399 6.2896 41.086C6.30527 41.0971 6.32175 41.1071 6.33891 41.1157C6.39977 41.1487 6.46298 41.1771 6.52803 41.2008C6.57093 41.2156 6.61469 41.2278 6.65906 41.2373C6.69013 41.2454 6.7266 41.2501 6.75767 41.2555L6.84143 41.2636C6.86912 41.2636 6.89749 41.2636 6.92653 41.2636C7.89914 41.2636 8.3044 40.1897 8.43881 39.8364L8.47056 39.7399C8.47056 39.7399 8.47056 39.7399 8.47056 39.7331C8.47227 39.7246 8.47453 39.7163 8.47731 39.7081C8.48204 39.6825 8.49217 39.6406 8.50163 39.5919C8.50163 39.5703 8.50973 39.5474 8.51513 39.5244C8.52932 39.4501 8.54418 39.3582 8.55904 39.2502C8.56444 39.2171 8.56917 39.1826 8.57255 39.1468C8.58065 39.0908 8.5874 39.0286 8.59348 38.9658C8.59348 38.9462 8.59348 38.928 8.59889 38.9084C8.60497 38.8409 8.61037 38.7787 8.6151 38.7098V38.6936C8.61982 38.6261 8.6232 38.5471 8.62658 38.4701C8.62658 38.4505 8.62658 38.4289 8.62658 38.4079C8.62658 38.3255 8.62658 38.2418 8.62658 38.1546C8.62658 38.1384 8.62658 38.1222 8.62658 38.1053C8.62658 37.9892 8.62658 37.8689 8.6151 37.7413C8.60361 37.5062 8.57862 37.255 8.53945 36.9943C8.50838 36.7754 8.46583 36.5505 8.40977 36.3188C8.3868 36.2249 8.36384 36.1317 8.3375 36.0365C8.2709 35.7904 8.19132 35.5481 8.09907 35.3104C8.06125 35.2118 8.02207 35.1139 7.97952 35.0153C7.95656 34.9639 7.93494 34.9133 7.91198 34.864C7.86808 34.7653 7.82012 34.6654 7.76744 34.5654C7.63556 34.3051 7.48922 34.0523 7.32908 33.8083C6.04577 31.6212 4.22753 27.4782 4.92186 25.8315C5.17312 25.2506 5.6574 24.6738 5.89718 24.6738C5.99242 24.6738 6.2457 24.8055 6.59355 25.3026C6.71512 25.4688 7.12105 25.9564 7.74177 25.9564C7.95183 25.9564 8.65832 25.8821 8.94673 24.9433C8.99469 24.8021 10.0619 21.5662 9.49383 18.6814C9.87139 19.5824 10.2165 20.5956 10.249 21.3156L11.3296 21.3271C11.6126 22.4799 12.0456 23.5905 12.6177 24.6306C12.744 24.8636 12.8878 25.0865 13.0351 25.3101C13.1679 25.5032 13.2905 25.7032 13.4025 25.9092C13.9342 26.9212 14.3153 28.0054 14.5339 29.1276C14.5548 29.2563 14.5679 29.3862 14.573 29.5166C14.6277 30.2177 14.7162 31.3889 15.7706 31.8131C15.9434 31.8844 16.1286 31.9214 16.3156 31.9218C17.1903 31.9218 17.757 31.1498 17.9313 30.3845C18.0317 29.9081 18.077 29.4218 18.0663 28.9351C18.0663 28.7939 18.0826 24.9433 15.7395 20.7448C15.5801 20.3477 14.3488 17.0867 15.3586 14.1486C15.5848 13.6083 16.086 12.9781 16.3109 12.9781C16.3582 12.9781 16.5061 13.0423 16.7216 13.2854L17.5638 14.2391L18.2278 13.1483C18.4475 12.7631 18.6344 12.36 18.7863 11.9434C18.671 13.0497 18.4512 14.1427 18.1298 15.2077C17.0215 18.961 16.9141 22.2598 17.8191 25.0169L17.8732 25.1824C18.1048 25.9098 18.4581 27.0101 19.4658 27.4633C19.7109 27.5751 19.9766 27.6345 20.2459 27.6376C21.1686 27.6376 21.898 26.8818 22.1013 25.7113C22.1128 25.6768 22.5593 23.8295 22.1081 21.2534C22.2912 21.594 22.5096 21.9144 22.7599 22.2092L22.9125 22.3915L23.1361 22.4787C23.3362 22.5528 23.5481 22.5901 23.7615 22.5888C24.1999 22.5888 25.2556 22.4213 25.7203 20.9002C25.9682 20.3916 26.9793 18.0634 26.4882 14.7856L26.4768 14.7119L26.4538 14.6397C26.4491 14.6214 26.214 13.8791 25.9891 12.816C26.0303 12.9572 26.1438 13.3118 26.1438 13.3118L26.1681 13.3645C26.1897 13.407 28.1633 17.6548 27.3163 20.6435C26.9597 21.9045 26.4031 23.2264 25.6642 24.5691C25.492 24.8825 25.2934 25.1817 25.0962 25.4803C24.7585 25.9929 24.4113 26.5218 24.1506 27.1357C23.8689 27.7983 23.641 28.4825 23.4691 29.1816C23.1226 30.5932 22.7518 33.1862 24.1587 34.6917C24.5498 35.1105 24.9631 35.199 25.2427 35.199C25.5805 35.199 26.2295 35.0639 26.7233 34.15C27.1637 33.3395 27.188 32.4615 27.1684 31.8745C27.1576 31.5656 27.1313 31.2574 27.0894 30.9512C27.1373 31.037 27.1866 31.1207 27.2373 31.2011C28.0356 32.4844 28.6314 34.1055 29.011 36.0156C29.2622 37.2847 29.1535 38.5194 28.6989 39.5865C28.6793 39.6325 28.6597 39.6784 28.6415 39.7216C28.6233 39.7649 28.6084 39.8054 28.5935 39.8466C28.5787 39.8878 28.5577 39.9438 28.5409 39.9911C28.5199 40.0533 28.4983 40.1161 28.4807 40.1782C28.4632 40.2404 28.4409 40.3045 28.4247 40.3673C28.4132 40.4099 28.4017 40.4524 28.3916 40.495C28.3815 40.5375 28.3706 40.5821 28.3625 40.6247C28.3328 40.7566 28.3103 40.8865 28.295 41.0144C28.2869 41.0732 28.2788 41.1326 28.2741 41.19C28.2592 41.3393 28.2511 41.4872 28.2511 41.6331C28.2511 41.7006 28.2511 41.7682 28.2558 41.8357C28.2558 41.8783 28.2606 41.9195 28.2639 41.962C28.2805 42.1773 28.3151 42.3908 28.3673 42.6003C28.3808 42.6597 28.397 42.7171 28.4152 42.7746C28.4362 42.8516 28.4625 42.9292 28.4909 43.0062C28.5896 43.2717 28.7162 43.5259 28.8684 43.7647C28.888 43.7945 28.9076 43.8255 28.9292 43.8552C28.9508 43.885 28.9718 43.916 28.9968 43.9471C29.0805 44.0611 29.1738 44.1678 29.2757 44.2659C29.2843 44.276 29.2938 44.2852 29.3041 44.2936C29.3433 44.3314 29.3858 44.3659 29.4284 44.4003C29.4541 44.4213 29.4809 44.4409 29.5087 44.4591C29.5121 44.4629 29.5162 44.4659 29.5209 44.4678C29.5902 44.5173 29.6637 44.5607 29.7404 44.5975C29.7857 44.6211 29.8324 44.6419 29.8802 44.6597C29.9018 44.6678 29.9228 44.6745 29.9444 44.6813C29.966 44.688 29.9755 44.6907 29.9903 44.6955C30.0052 44.7002 30.0362 44.709 30.0579 44.7137C30.121 44.7289 30.1851 44.74 30.2497 44.7468L30.3057 44.7515C30.3368 44.7515 30.3699 44.7515 30.4023 44.7515C30.6897 44.7499 30.9708 44.6667 31.2128 44.5117C31.4226 44.3837 31.6114 44.2243 31.7728 44.039C31.7843 44.2328 31.7856 44.4206 31.7795 44.6151Z" fill="#FFE8CC"/>
<path d="M17.4807 62.042C15.1363 62.0453 12.8398 61.3786 10.8616 60.1205L10.6414 59.9766C8.92294 58.852 7.52475 57.3018 6.58273 55.4769C6.25718 54.8373 5.91406 54.2037 5.60201 53.5573C5.49665 53.3412 5.40682 53.1406 5.32509 52.9434C5.28592 52.8495 5.25012 52.7603 5.21567 52.6678C5.05725 52.2567 4.92195 51.8371 4.81042 51.4108C4.7915 51.3352 4.77124 51.2555 4.75233 51.1758C4.62268 50.6357 4.52904 50.0876 4.47203 49.5352C4.46392 49.4528 4.45649 49.3778 4.45109 49.3022C4.43623 49.1414 4.42542 48.9847 4.41799 48.8294C4.41799 48.8179 4.41799 48.7773 4.41799 48.7773V48.7713C4.41326 48.6848 4.41056 48.599 4.40854 48.5112V48.4815V48.4612C4.40854 48.3525 4.40381 48.2438 4.40381 48.1337C4.40381 47.8554 4.41124 47.5636 4.42745 47.2671C4.46992 46.5505 4.557 45.8372 4.68816 45.1314C4.71721 44.9679 4.7503 44.8079 4.78407 44.6451C5.10723 43.5124 5.31674 42.3503 5.40952 41.1761C5.45882 41.2362 5.51016 41.2923 5.56487 41.3477C5.59121 41.3733 5.6162 41.397 5.64254 41.4199C5.73221 41.5018 5.8292 41.5753 5.9323 41.6394C5.96407 41.661 5.99724 41.6804 6.03159 41.6975C6.11637 41.7431 6.20415 41.7828 6.29433 41.8164L6.31054 41.8218C6.37479 41.8445 6.44045 41.863 6.50709 41.8772C6.5579 41.8893 6.6093 41.8988 6.66108 41.9056H6.68C6.72457 41.911 6.76307 41.9143 6.8009 41.917C6.83872 41.9197 6.88127 41.9211 6.92382 41.9211C7.86942 41.9211 8.582 41.3004 9.04872 40.0752L9.06155 40.0387L9.08519 39.9657L9.12504 39.8705C9.12504 39.8705 9.12504 39.8117 9.12504 39.8084C9.13044 39.7827 9.1372 39.7523 9.14395 39.7178L9.15341 39.6679C9.173 39.5679 9.19056 39.4652 9.20744 39.3389C9.21217 39.3065 9.21757 39.2667 9.22163 39.2248C9.23041 39.1653 9.23716 39.0998 9.24391 39.0343L9.25067 38.9614C9.25675 38.9046 9.26215 38.8324 9.26755 38.7587V38.7351V38.7169C9.27228 38.6493 9.27566 38.575 9.27836 38.5007V38.4717C9.27836 38.4487 9.27836 38.4291 9.27836 38.4095C9.27836 38.3319 9.27836 38.2461 9.27836 38.1563C9.27836 38.1326 9.27836 38.1083 9.27836 38.084C9.27836 37.957 9.27431 37.8354 9.2662 37.7105C9.2524 37.4391 9.22489 37.1686 9.1838 36.9C9.15071 36.6642 9.10275 36.4164 9.04399 36.1692C9.0163 36.0584 8.99266 35.9625 8.96564 35.8645C8.8933 35.5977 8.80695 35.3348 8.70695 35.077C8.66643 34.971 8.62387 34.8636 8.57727 34.7568L8.54823 34.6893C8.53337 34.6549 8.51851 34.6218 8.50297 34.588C8.45029 34.4711 8.39761 34.3617 8.34425 34.2611C8.20466 33.987 8.05067 33.7205 7.88293 33.4627C6.34431 30.8407 5.02993 27.2562 5.52231 26.0877C5.61951 25.8696 5.7451 25.6652 5.89583 25.4799C5.9404 25.5325 5.99241 25.5987 6.0505 25.6825C6.26258 25.9716 6.83197 26.6159 7.73501 26.6159C8.39963 26.6159 9.22905 26.2296 9.56542 25.1455C9.88973 24.1128 10.1112 23.0506 10.2267 21.9744L10.8129 21.9805C11.1093 23.0114 11.5191 24.0063 12.0348 24.9469C12.1658 25.1887 12.3124 25.4143 12.4535 25.6325L12.4772 25.669C12.5989 25.8457 12.7117 26.0286 12.8149 26.2167C13.3169 27.1725 13.6766 28.1964 13.8827 29.2562C13.8969 29.3515 13.9061 29.4476 13.9104 29.5439V29.5648C13.9685 30.3139 14.0874 31.8505 15.5173 32.4273C15.7683 32.53 16.0369 32.583 16.3082 32.5833C17.5449 32.5833 18.3345 31.5546 18.5641 30.5354C18.6766 30.0093 18.7278 29.4719 18.7168 28.934C18.7143 28.5377 18.6906 28.1417 18.6459 27.7479C18.8133 27.8751 18.9945 27.983 19.1862 28.0694C19.5158 28.2193 19.8731 28.2982 20.2351 28.3011C21.4752 28.3011 22.4809 27.3082 22.7376 25.8311L22.7248 25.8824C22.7768 25.6643 22.9949 24.6356 22.9483 23.1219C23.2064 23.2114 23.4776 23.257 23.7507 23.257C24.1992 23.257 25.7014 23.1044 26.3234 21.1524C26.5142 20.7439 26.6734 20.3215 26.7996 19.8887C26.7706 20.0861 26.7291 20.2815 26.6753 20.4736C26.3329 21.6894 25.7973 22.9605 25.08 24.2621C24.928 24.539 24.7517 24.8058 24.5653 25.0888L24.5389 25.1286C24.183 25.669 23.8196 26.2235 23.538 26.8895C23.2428 27.5842 23.0041 28.3016 22.824 29.0346C22.4458 30.5753 22.0534 33.4188 23.6717 35.1499C24.2235 35.7416 24.8267 35.8659 25.2353 35.8659C25.6271 35.8659 26.6125 35.7308 27.294 34.4725C27.446 34.19 27.5648 33.8908 27.6479 33.5809C27.9523 34.4182 28.1901 35.2782 28.3592 36.1529C28.5841 37.291 28.4902 38.3927 28.089 39.3389C28.0674 39.3903 28.0451 39.4423 28.0248 39.4943C28.0046 39.5463 27.9877 39.5888 27.9701 39.6368L27.9593 39.6672C27.9438 39.7084 27.9289 39.7489 27.9147 39.7894C27.8911 39.857 27.8681 39.9245 27.8472 39.9921C27.8262 40.0596 27.8026 40.138 27.783 40.2102C27.7709 40.2562 27.7574 40.3061 27.7459 40.3555L27.7351 40.4034C27.727 40.4358 27.7195 40.4676 27.7134 40.4993C27.6804 40.6472 27.654 40.7958 27.6358 40.9404C27.627 41.0039 27.6175 41.0755 27.6115 41.143C27.5946 41.3092 27.5858 41.4807 27.5858 41.6421C27.5858 41.7198 27.5858 41.7961 27.5919 41.8745C27.5919 41.917 27.5966 41.963 27.6007 42.0096C27.6194 42.2619 27.6594 42.5123 27.7202 42.7579C27.7364 42.8255 27.756 42.8971 27.7769 42.966C27.7999 43.0463 27.8269 43.1294 27.8647 43.2361C27.9808 43.548 28.1295 43.8466 28.3085 44.127L28.3288 44.1581C28.3463 44.1851 28.3646 44.2121 28.3828 44.2385C28.401 44.2648 28.4321 44.306 28.4578 44.3432C28.5596 44.4807 28.6726 44.6097 28.7955 44.7288C28.8144 44.7491 28.834 44.768 28.8542 44.7869C28.9036 44.8322 28.9556 44.8754 29.0076 44.9173C29.0319 44.9369 29.0569 44.9558 29.0819 44.9747L29.1447 45.0355L29.2041 45.0584C29.2794 45.1082 29.3577 45.1533 29.4385 45.1935C29.5043 45.2269 29.5719 45.2564 29.6411 45.282L29.7249 45.3111C29.7451 45.3178 29.7654 45.3246 29.7857 45.33L29.8039 45.3354C29.841 45.3462 29.8782 45.3563 29.9153 45.3644C30.0021 45.3848 30.0901 45.3995 30.1788 45.4083L30.2679 45.4157C30.3125 45.4157 30.355 45.4198 30.3983 45.4198C30.6247 45.4203 30.8498 45.3845 31.0649 45.3138C31.0568 45.3854 31.0474 45.4576 31.0372 45.5299L31.0129 45.6994C30.9717 45.9595 30.9183 46.2438 30.8549 46.5336L30.8116 46.7254L30.7995 46.7774C30.7799 46.8571 30.761 46.9375 30.7407 47.0172C30.7238 47.0847 30.7069 47.1523 30.6901 47.2117L30.6259 47.4522C30.6063 47.5305 30.5854 47.6001 30.5651 47.6696C30.5415 47.7568 30.5205 47.829 30.4976 47.902L30.4685 47.9965V48.002C30.432 48.1249 30.3956 48.2478 30.3577 48.3694C30.2956 48.5673 30.2321 48.7672 30.1673 48.9671C29.7755 50.1735 29.762 51.4426 29.4601 52.6664C29.1992 53.731 28.7962 54.7556 28.2619 55.7126C28.1507 55.913 28.0329 56.1102 27.9086 56.3043C27.856 56.3874 27.8026 56.4698 27.7459 56.5529C26.6193 58.2425 25.0928 59.6277 23.302 60.5853C21.5112 61.543 19.5115 62.0434 17.4807 62.042V62.042ZM16.5568 20.8687C16.4861 20.7336 16.4129 20.5985 16.3372 20.4635C16.1481 19.9799 15.0776 17.0276 15.9752 14.3846C16.0652 14.1825 16.1785 13.9916 16.3129 13.8159L17.4679 15.1242C16.8729 17.1674 16.5696 19.0876 16.5568 20.8687Z" fill="#FF8A00"/>
<path d="M17.4809 61.3846C15.2865 61.3872 13.1361 60.77 11.2771 59.6042L10.8502 59.3225C9.14542 58.1986 7.81753 56.5411 6.93272 54.7175C6.74428 54.3277 6.53355 53.9502 6.34105 53.5652L6.3012 53.4848L6.29039 53.4693C6.2573 53.4017 6.22285 53.3382 6.19246 53.2714C6.09384 53.0688 6.00874 52.879 5.93242 52.6925C5.89392 52.6027 5.86487 52.5223 5.8311 52.4392C5.68172 52.0478 5.55454 51.6482 5.45016 51.2424C5.4326 51.1749 5.41369 51.0979 5.39545 51.0229C5.27278 50.5096 5.18388 49.9889 5.12933 49.464C5.12258 49.3917 5.11515 49.3201 5.10975 49.2492C5.09556 49.0918 5.08611 48.9459 5.07868 48.7994V48.7217V48.7075C5.07868 48.64 5.0726 48.5664 5.07192 48.4948V48.4272C5.07192 48.3286 5.06787 48.2293 5.06787 48.1287C5.06787 47.8585 5.07598 47.5816 5.09084 47.2972C5.13129 46.6086 5.21521 45.9233 5.34209 45.2453C5.36844 45.0933 5.39815 44.9488 5.42922 44.8022C5.6559 44.0058 5.82764 43.1947 5.94322 42.3747C5.98442 42.3923 6.02765 42.4098 6.07155 42.4261L6.09249 42.4342C6.1822 42.4657 6.27379 42.4916 6.36672 42.5118C6.43426 42.528 6.5018 42.5402 6.5761 42.551L6.60379 42.5544C6.67133 42.5625 6.72132 42.5672 6.77265 42.5706C6.82398 42.574 6.87531 42.5753 6.93137 42.5753C7.78646 42.5753 8.95765 42.1822 9.66955 40.3072L9.69454 40.2397L9.7094 40.1924L9.78843 40.004V39.8837L9.80734 39.7878C9.8276 39.6838 9.84719 39.5663 9.8661 39.4272C9.87083 39.3974 9.87691 39.3529 9.88231 39.3042C9.89109 39.2407 9.89852 39.1691 9.90528 39.1016L9.91271 39.0172C9.91878 38.9665 9.92486 38.8868 9.93094 38.8031L9.93432 38.7558V38.7348C9.93837 38.6673 9.94107 38.5998 9.94445 38.5248V38.4836C9.94445 38.4647 9.94445 38.4356 9.94445 38.4066C9.94445 38.339 9.94445 38.2479 9.94445 38.1533C9.94445 38.1243 9.94445 38.0939 9.94445 38.0642C9.94445 37.9291 9.93972 37.798 9.93162 37.6677C9.91811 37.3908 9.88771 37.0949 9.84314 36.7964C9.80734 36.5444 9.75601 36.2783 9.69184 36.0102C9.66212 35.8893 9.63713 35.7873 9.60809 35.6839C9.53034 35.3959 9.43722 35.1123 9.32914 34.8343C9.28591 34.7215 9.23998 34.606 9.18932 34.4898L9.15825 34.4222C9.14272 34.3865 9.12583 34.348 9.10827 34.3101C9.05289 34.1872 8.99345 34.065 8.93536 33.9542C8.78862 33.6666 8.62697 33.3868 8.45108 33.116C6.95704 30.5662 6.029 27.7416 6.08034 26.6481C6.54422 27.0455 7.13378 27.2658 7.74459 27.2702C8.6017 27.2702 9.75938 26.7636 10.2025 25.3378C10.3899 24.7463 10.5424 24.1444 10.6591 23.5351C10.8941 24.1244 11.1648 24.6989 11.4696 25.2554C11.6121 25.5181 11.7647 25.7545 11.9126 25.9828L11.9376 26.0206C12.0511 26.1922 12.1639 26.3624 12.245 26.5164C12.717 27.4148 13.0553 28.3773 13.2493 29.3734C13.2554 29.4065 13.2621 29.5133 13.2669 29.5761V29.5984C13.3297 30.4129 13.4756 32.3001 15.283 33.0282C15.6122 33.1624 15.9643 33.2312 16.3198 33.2308C17.9185 33.2308 18.9263 31.9475 19.216 30.6716C19.3401 30.0947 19.3968 29.5054 19.3849 28.9155C19.3849 28.9067 19.3849 28.875 19.3849 28.8209C19.6656 28.9028 19.9564 28.9446 20.2488 28.9452C20.6661 28.9451 21.0787 28.8563 21.4591 28.6847C21.8395 28.513 22.1791 28.2625 22.4554 27.9496C22.3608 28.2509 22.275 28.5575 22.2001 28.8615C21.7901 30.5318 21.376 33.6252 23.2051 35.5826C23.9177 36.3465 24.7099 36.5066 25.2489 36.5066C25.6893 36.5066 26.7038 36.3803 27.519 35.3327C27.5951 35.6349 27.6649 35.9456 27.7284 36.2648C27.9277 37.2726 27.848 38.2411 27.4968 39.0658C27.4724 39.1219 27.4475 39.1806 27.4245 39.2387C27.4063 39.286 27.384 39.3441 27.3637 39.3995L27.3549 39.4224C27.338 39.469 27.3211 39.5143 27.3056 39.5575C27.2793 39.6345 27.2543 39.7081 27.2327 39.7818C27.2111 39.8554 27.182 39.9466 27.1604 40.0283C27.1469 40.0789 27.132 40.1357 27.1185 40.1924L27.1077 40.2404C27.0989 40.2768 27.0895 40.316 27.0814 40.3559C27.0469 40.5099 27.0138 40.6781 26.9963 40.8429C26.9868 40.9104 26.976 40.9928 26.9693 41.0738C26.9517 41.2522 26.9416 41.4474 26.9416 41.6284C26.9416 41.7175 26.9416 41.804 26.9483 41.8931C26.9483 41.9364 26.9537 41.9918 26.9578 42.0492C26.9788 42.3377 27.024 42.6239 27.0929 42.9049C27.1091 42.9725 27.1314 43.0583 27.157 43.1407C27.1834 43.2339 27.2144 43.3291 27.257 43.4466C27.3898 43.8048 27.5603 44.1478 27.7656 44.4699L27.7899 44.507C27.8122 44.5401 27.8345 44.5746 27.8574 44.607C27.8804 44.6394 27.9081 44.6786 27.9385 44.7198C28.0576 44.8826 28.19 45.0353 28.3343 45.1764C28.3633 45.2068 28.393 45.2358 28.4248 45.2642C28.4734 45.3094 28.5369 45.3628 28.6018 45.4148L28.6612 45.4621L28.7895 45.5864L28.9145 45.635C28.9912 45.6825 29.0703 45.726 29.1516 45.7654C29.236 45.8088 29.3228 45.8473 29.4116 45.8809C29.4481 45.8944 29.4845 45.9072 29.521 45.9187C29.5575 45.9302 29.5811 45.9383 29.6108 45.9471H29.6217C29.677 45.9633 29.729 45.9774 29.7811 45.9883C29.8923 46.0143 30.0051 46.0331 30.1188 46.0443L30.2417 46.0538H30.2863C30.266 46.1585 30.2437 46.2659 30.2187 46.3746L30.1769 46.561L30.1667 46.6015C30.1478 46.6806 30.1289 46.7576 30.1093 46.8352C30.0897 46.9129 30.0769 46.9629 30.062 47.0203L29.9945 47.2608C29.9749 47.3371 29.958 47.3958 29.9411 47.4526L29.9344 47.4755C29.9128 47.5559 29.8938 47.6221 29.8729 47.689L29.8148 47.8774V47.8862C29.7885 47.976 29.7615 48.0659 29.7338 48.1564C29.6737 48.3495 29.6108 48.5474 29.546 48.7453C29.498 48.8933 29.4474 49.0446 29.3954 49.1959C29.0374 50.2401 29.0685 51.364 28.8172 52.4338C28.5727 53.4896 28.1792 54.5053 27.6487 55.4503C27.556 55.6138 27.4589 55.7747 27.3576 55.9332C27.309 56.0096 27.2597 56.0866 27.207 56.1629C26.1422 57.7679 24.6969 59.0845 22.9999 59.9956C21.3029 60.9067 19.4069 61.3839 17.4809 61.3846V61.3846ZM23.455 25.616C23.5496 25.0488 23.6035 24.4754 23.6164 23.9005C23.663 23.9005 23.711 23.9005 23.7596 23.9005C24.0416 23.8997 24.3222 23.8609 24.5938 23.785L24.5134 23.9322C24.3743 24.1855 24.2047 24.4415 24.0264 24.713L23.9994 24.7535C23.8191 25.0359 23.634 25.3162 23.457 25.616H23.455ZM16.2955 17.1644C16.2452 16.4345 16.3076 15.7012 16.4806 14.9902L16.7419 15.2867C16.565 15.923 16.4157 16.5489 16.2941 17.1644H16.2955Z" fill="#FFE8CC"/>
<path d="M17.4803 60.7281C15.4343 60.7304 13.4283 60.1617 11.6878 59.0862L11.0604 58.6681C10.2296 58.1136 9.48797 57.3652 8.8659 56.5885C8.37149 55.9704 7.97569 55.2815 7.61029 54.5811C7.24488 53.8807 6.84368 53.1742 6.54244 52.4427C6.50596 52.3562 6.47489 52.2853 6.4499 52.2117C6.30629 51.8409 6.18384 51.4623 6.08315 51.0777C6.06761 51.0169 6.04938 50.9426 6.03249 50.875C5.91558 50.389 5.83119 49.8958 5.77988 49.3985C5.77313 49.3256 5.76705 49.2635 5.76232 49.2027C5.74814 49.0453 5.73868 48.9082 5.73192 48.7697V48.6738V48.6535C5.73192 48.5982 5.7272 48.5434 5.72652 48.4874V48.409C5.72652 48.3199 5.72314 48.2267 5.72314 48.1321C5.72314 47.8768 5.7299 47.6087 5.74476 47.3351C5.78212 46.6745 5.86085 46.017 5.98048 45.3662C6.00547 45.2264 6.03181 45.0961 6.05883 44.965C6.22362 44.3846 6.35888 43.7963 6.46409 43.2022L6.50799 43.2076C6.59917 43.2184 6.66266 43.2245 6.72548 43.2278C6.78829 43.2312 6.85178 43.2346 6.92135 43.2346C7.78995 43.2346 9.38125 42.8847 10.2735 40.543L10.31 40.4404L10.316 40.4201L10.4342 40.1378V39.9487L10.4417 39.9108C10.464 39.7987 10.4856 39.6677 10.5092 39.5157C10.5126 39.4914 10.52 39.4401 10.5261 39.3806C10.5349 39.3131 10.543 39.2408 10.5511 39.1679L10.5592 39.0726C10.5639 39.0301 10.5714 38.9409 10.5781 38.8477L10.5828 38.7802V38.7552C10.5869 38.6876 10.5896 38.6201 10.5923 38.5525V38.5086C10.5923 38.4816 10.5923 38.4411 10.5923 38.4066C10.5923 38.3492 10.5923 38.2533 10.5923 38.1534C10.5923 38.1189 10.5923 38.0858 10.5923 38.0487C10.5923 37.9028 10.5862 37.765 10.5774 37.6265C10.5616 37.3158 10.53 37.0061 10.4829 36.6985C10.4451 36.4283 10.3903 36.1453 10.3214 35.8576C10.289 35.7225 10.262 35.6185 10.2323 35.5091C10.1485 35.2001 10.0484 34.8957 9.9324 34.5972C9.88647 34.4777 9.83649 34.3534 9.78246 34.2285L9.74936 34.1542C9.73383 34.117 9.71424 34.0738 9.69465 34.0306C9.63657 33.9022 9.57037 33.7665 9.50688 33.6449C9.35331 33.3438 9.18446 33.0507 9.00099 32.7668C7.91625 30.9128 7.20503 29.0378 6.89839 27.8085C7.17095 27.8839 7.45245 27.9221 7.73524 27.922C8.81592 27.922 10.2715 27.2952 10.8206 25.5276C10.8206 25.5202 10.828 25.5047 10.8354 25.4817C10.8503 25.5101 10.8658 25.5384 10.8814 25.5668C11.0354 25.8511 11.1954 26.0977 11.3494 26.3368L11.3744 26.3746C11.4812 26.536 11.5865 26.6948 11.6514 26.8184C12.0915 27.6558 12.408 28.5527 12.5909 29.4809C12.5909 29.5039 12.601 29.6389 12.601 29.6389C12.6686 30.4974 12.8415 32.754 15.0271 33.6361C15.4346 33.8022 15.8705 33.8875 16.3105 33.8874C18.2692 33.8874 19.4998 32.3454 19.847 30.8169C19.9359 30.4168 19.9924 30.0103 20.0158 29.6011C20.0901 29.6052 20.1651 29.6079 20.2394 29.6079C20.6339 29.6085 21.0258 29.5436 21.3991 29.416C21.0425 31.291 20.9189 34.1136 22.7162 36.0352C23.5895 36.9714 24.5702 37.1679 25.2396 37.1679C25.9052 37.1613 26.5548 36.9629 27.1105 36.5965C27.2375 37.4009 27.1598 38.1635 26.8829 38.8119C26.8566 38.8734 26.8295 38.9382 26.8039 39.0024C26.7843 39.0517 26.7586 39.1185 26.7363 39.182L26.7303 39.1976C26.7107 39.2496 26.6931 39.2989 26.6756 39.3482C26.6458 39.436 26.6181 39.5177 26.5938 39.5988C26.5695 39.6798 26.5405 39.7724 26.5161 39.8689C26.5013 39.923 26.4844 39.9872 26.4695 40.0513L26.4581 40.1013C26.4486 40.1391 26.4378 40.1871 26.4283 40.2364C26.3919 40.3971 26.3608 40.5862 26.3358 40.7693C26.3257 40.8368 26.3135 40.9341 26.3054 41.0273C26.2858 41.2212 26.2757 41.4326 26.2757 41.6352C26.2757 41.7352 26.2757 41.8324 26.2825 41.9324C26.2825 41.9749 26.2885 42.0398 26.2939 42.1066C26.3185 42.4319 26.3702 42.7545 26.4486 43.0711C26.4648 43.1387 26.4905 43.2373 26.5229 43.3413C26.5553 43.4453 26.585 43.5439 26.633 43.679C26.7829 44.0835 26.9753 44.4709 27.2071 44.8347L27.2348 44.8772C27.2618 44.9178 27.2895 44.9583 27.3172 44.9981C27.3348 45.0238 27.3679 45.0704 27.4043 45.119C27.5424 45.3068 27.6951 45.4835 27.8609 45.6472C27.8996 45.6868 27.9395 45.7253 27.9805 45.7627C28.0278 45.8073 28.1048 45.8715 28.1831 45.9343L28.2257 45.9681L28.4215 46.1592L28.6188 46.2362C28.6978 46.2828 28.7788 46.326 28.8592 46.3652C28.9611 46.416 29.0657 46.4611 29.1726 46.5003C29.2185 46.5172 29.2631 46.5327 29.3077 46.5469C29.3523 46.5611 29.3874 46.5732 29.4279 46.5847L29.4867 46.6016C29.4799 46.6293 29.4732 46.657 29.4657 46.6847C29.4495 46.7522 29.4353 46.8076 29.4212 46.8603L29.3536 47.1014C29.3347 47.175 29.3205 47.2237 29.3063 47.2723L29.2969 47.3054C29.2746 47.3858 29.257 47.4459 29.2381 47.508L29.1517 47.7903V47.8018C29.1348 47.8592 29.1172 47.9167 29.0997 47.9734C29.0409 48.1605 28.9788 48.3564 28.9146 48.5522C28.868 48.6968 28.8187 48.8447 28.7673 48.9933C28.4019 50.0571 28.3925 51.1938 28.1405 52.2833C27.9058 53.3442 27.5114 54.3633 26.9707 55.3058C26.9144 55.4022 26.8563 55.4974 26.7965 55.5915C26.7525 55.6591 26.7066 55.732 26.658 55.8036C25.6522 57.3169 24.2881 58.5583 22.687 59.4174C21.0859 60.2765 19.2973 60.7268 17.4803 60.7281V60.7281Z" fill="#FF8A00"/>
<path d="M32.5503 42.8045C32.3646 41.2348 31.5129 39.813 31.5473 38.1967C31.5541 37.8833 31.5568 37.3497 31.8033 37.1019C30.8807 38.0245 30.8442 39.4436 31.0711 40.6384C31.2569 41.6252 31.8283 43.0307 30.7213 43.719C30.0674 44.1243 29.5541 43.182 29.3704 42.6829C29.0422 41.79 29.1982 40.8093 29.5643 39.9542C30.1161 38.6601 30.2066 37.2119 29.9324 35.8341C29.5805 34.0557 28.9996 32.2543 28.0358 30.7076C27.1935 29.3567 26.847 27.3696 27.128 25.7999C27.2144 25.3103 27.384 24.5801 27.7778 24.2235C26.6795 25.215 26.1736 26.4848 25.9487 27.5763C25.6515 29.0265 26.1885 30.4597 26.2358 31.9065C26.256 32.5204 26.2 33.156 25.9028 33.7045C25.6697 34.1347 25.2739 34.515 24.8471 34.0543C23.7846 32.9176 24.0507 30.7603 24.3824 29.4054C24.5428 28.7553 24.7546 28.1191 25.0159 27.5027C25.3935 26.6125 26.0223 25.8641 26.487 25.0218C27.2063 23.7135 27.8142 22.3343 28.2195 20.899C29.1752 17.5219 27.0179 12.9648 27.0179 12.9648C25.8021 9.23241 27.1672 8.54617 27.228 8.51848C27.228 8.5482 27.5744 8.81432 27.6271 8.83188C27.7573 8.87516 27.8977 8.87704 28.029 8.83728C28.9071 8.58399 28.8551 7.39524 28.8895 6.68267C28.9344 5.62669 28.7642 4.57261 28.389 3.58449C27.3347 0.758504 27.646 0 27.646 0C27.0449 0.582893 27.0382 1.51903 27.1861 2.28699C27.2665 2.70103 27.4752 3.06576 27.5751 3.47439C27.7298 4.10659 27.9412 4.97316 27.5576 5.55808C27.5143 5.62563 27.0091 6.15583 27.0003 6.15583C25.9467 4.76513 25.0598 6.53475 25.0598 6.53475C23.8792 9.65455 25.5657 14.9256 25.5657 14.9256C26.073 18.298 24.8498 20.5539 24.8498 20.5539C24.4492 21.9878 23.4787 21.6082 23.4787 21.6082C21.7084 19.5002 22.9383 17.5246 22.9383 17.5246C24.6802 18.2851 24.8498 14.5183 24.8498 14.5183C24.6802 9.82408 21.7712 6.51381 21.7712 6.51381C23.0748 12.648 22.3588 14.2292 22.3588 14.2292C21.5483 13.6612 21.0519 14.4197 21.0519 14.4197C19.4916 16.9073 20.8823 20.1108 20.8823 20.1108C21.7678 23.1894 21.1782 25.5507 21.1782 25.5507C21.0586 26.2369 20.6425 26.9644 19.8496 26.6078C19.1634 26.2991 18.9222 25.3751 18.7102 24.726C17.7335 21.7427 18.157 18.4229 19.0269 15.4727C21.2207 8.05108 17.9321 4.72055 17.9321 4.72055C19.5348 9.19053 17.4262 12.6615 17.4262 12.6615C15.7376 10.7501 14.4739 13.8422 14.4739 13.8422C13.2655 17.3544 14.896 21.1503 14.896 21.1503C17.1736 25.1981 17.131 28.9434 17.131 28.9434C17.1407 29.3568 17.1026 29.77 17.0175 30.1747C16.927 30.5705 16.6082 31.1385 16.1206 30.9413C15.4451 30.6671 15.566 29.5182 15.4559 28.9468C15.2196 27.7354 14.808 26.565 14.2341 25.4724C13.9977 25.0219 13.6823 24.62 13.4412 24.1782C11.1575 19.9859 12.1443 16.7958 12.1754 16.6972C11.4378 17.48 11.1852 21.2699 11.1852 21.2699C11.1015 19.4165 9.44263 16.4014 9.44263 16.4014C7.40486 12.7743 8.78071 7.33648 8.78071 7.33648C5.36778 11.2573 8.15054 17.5388 8.15054 17.5388C9.50139 20.3628 8.05192 24.6632 8.05192 24.6632C7.82701 25.396 7.36231 24.7659 7.36231 24.7659C5.49408 22.0959 4.06083 25.4683 4.06083 25.4683C2.92274 28.17 6.54842 34.3238 6.54842 34.3238C8.23699 36.8952 7.56156 39.5091 7.56156 39.5091C6.90167 41.251 6.38092 39.6779 6.38092 39.6779C5.91623 32.6339 0.0541992 33.8166 0.0541992 33.8166C5.95675 35.3336 3.2287 44.2857 3.2287 44.2857C3.10198 44.8825 3.0055 45.4853 2.93962 46.0918C2.92476 46.2316 2.91193 46.3694 2.90045 46.5072C2.90111 46.5182 2.90111 46.5292 2.90045 46.5403C2.89031 46.6753 2.88221 46.8104 2.8741 46.9408C2.85925 47.2267 2.85159 47.5086 2.85114 47.7864C2.85114 47.9066 2.85114 48.0262 2.85587 48.1444C2.85587 48.1957 2.85587 48.2464 2.85925 48.2957C2.86375 48.4308 2.87028 48.5638 2.87883 48.6949C2.88424 48.778 2.88896 48.8617 2.89707 48.9455C2.91868 49.2264 2.94773 49.504 2.98555 49.7749C3.00041 49.8863 3.0173 49.9998 3.03486 50.1126C3.03486 50.1275 3.04026 50.1423 3.04161 50.1551C3.05647 50.2443 3.07133 50.3328 3.08754 50.4199L3.12199 50.5969C3.14157 50.6989 3.16319 50.7995 3.1848 50.9022C3.20236 50.9846 3.22195 51.0649 3.24221 51.144C3.25369 51.1967 3.26653 51.2487 3.28004 51.3C3.2976 51.377 3.31921 51.4526 3.3388 51.5283L3.37324 51.6546C3.39283 51.7221 3.41242 51.7897 3.43268 51.8572C3.53265 52.1949 3.64409 52.5185 3.76432 52.8339C3.78728 52.8947 3.81025 52.9555 3.83186 53.0142C3.83996 53.0358 3.84807 53.0554 3.85617 53.077C3.87914 53.1345 3.9021 53.1919 3.92709 53.2479C4.04057 53.5181 4.16034 53.7817 4.28642 54.0388C4.76732 55.0135 5.22459 56.0185 5.79803 56.9432C6.97371 58.8445 8.59615 60.4298 10.5242 61.5612C12.4523 62.6926 14.6275 63.3357 16.8608 63.4347C17.0675 63.4433 17.2744 63.4478 17.4816 63.4482C20.0258 63.4474 22.52 62.7409 24.6867 61.4073C26.8534 60.0737 28.6078 58.1653 29.7547 55.8942C30.1609 55.0797 30.4821 54.2255 30.7132 53.3452C30.9962 52.2868 31.1312 51.1973 31.4561 50.1531C31.4885 50.0484 31.5237 49.9431 31.5561 49.8363C31.6034 49.6871 31.6493 49.5378 31.6912 49.3865C31.7439 49.2123 31.7965 49.0366 31.8472 48.861C31.8573 48.8219 31.8688 48.782 31.8803 48.7442C31.9343 48.549 31.9884 48.3538 32.041 48.1586C32.0937 47.9634 32.1511 47.7479 32.2038 47.5426C32.6126 45.9984 32.7301 44.3917 32.5503 42.8045V42.8045ZM31.779 44.6153C31.779 44.6565 31.779 44.699 31.7736 44.7423C31.7736 44.8098 31.7675 44.8733 31.7621 44.9388V44.9456C31.756 45.0408 31.7472 45.1361 31.7378 45.2326C31.7243 45.3596 31.7094 45.4859 31.6918 45.6136C31.6837 45.671 31.675 45.727 31.6669 45.7845C31.6209 46.0749 31.5655 46.3694 31.5014 46.6625L31.4568 46.8597C31.4325 46.9617 31.4075 47.0624 31.3812 47.1684C31.3649 47.236 31.3467 47.3035 31.3285 47.371C31.3075 47.4501 31.2859 47.5291 31.265 47.6095C31.244 47.6898 31.2218 47.7668 31.1974 47.8459C31.1731 47.9249 31.1535 48.0032 31.1299 48.0856C31.084 48.2417 31.038 48.3977 30.9908 48.5517C30.9266 48.7543 30.8624 48.9569 30.7969 49.1596C30.4045 50.3659 30.3957 51.6445 30.0891 52.8697C29.829 53.9081 29.4406 54.91 28.9327 55.8524C28.7877 56.1225 28.6331 56.3869 28.4687 56.6453C28.4113 56.7351 28.3532 56.8243 28.2931 56.9155C26.4005 59.7508 23.4701 61.7293 20.1329 62.4249C16.7956 63.1205 13.3187 62.4775 10.451 60.6344C10.451 60.6344 10.4477 60.6344 10.4463 60.6344C10.2997 60.6344 9.97351 60.3156 9.85329 60.2291C9.65111 60.0823 9.45366 59.9301 9.26094 59.7725C8.87498 59.4558 8.50719 59.1176 8.15932 58.7594C7.463 58.0438 6.85111 57.2506 6.33566 56.3954C5.90339 55.6781 5.54136 54.9007 5.16718 54.1523C5.16718 54.1523 5.16718 54.1469 5.16245 54.1435C5.10977 54.0456 5.06046 53.945 5.01115 53.8436C4.90916 53.6329 4.80853 53.4168 4.71869 53.1932C4.67817 53.096 4.63832 52.998 4.60049 52.896C4.43558 52.4657 4.29487 52.0264 4.17903 51.5803C4.15741 51.4965 4.1358 51.4128 4.11621 51.329C3.98044 50.762 3.88229 50.1867 3.8224 49.6067C3.8143 49.5229 3.80619 49.4392 3.79944 49.3554C3.78458 49.1913 3.7731 49.0218 3.76499 48.8509C3.76499 48.8367 3.76499 48.8198 3.76499 48.805C3.75959 48.7118 3.75621 48.6179 3.75486 48.5226C3.75486 48.5078 3.75486 48.4949 3.75486 48.4801C3.75486 48.3653 3.74946 48.2504 3.74946 48.1336C3.74946 47.8411 3.75756 47.5412 3.77445 47.2319C3.8176 46.4871 3.90784 45.7458 4.04462 45.0124C4.07569 44.8368 4.11216 44.6612 4.14999 44.4822C4.19726 44.3377 5.73251 39.1835 3.90683 35.7206C4.70789 36.471 5.31374 37.7205 5.4468 39.738L5.45491 39.8583L5.49138 39.9717C5.53579 40.1028 5.58951 40.2306 5.65213 40.354C5.67037 40.3851 5.68658 40.4162 5.70482 40.4493C5.72305 40.4824 5.74264 40.5134 5.76358 40.5459C5.80587 40.6144 5.85304 40.6799 5.90474 40.7417C5.94429 40.791 5.98645 40.8381 6.03105 40.8829C6.0456 40.8981 6.06117 40.9123 6.07765 40.9254C6.14237 40.9862 6.21322 41.0401 6.28906 41.0862C6.30473 41.0973 6.32121 41.1073 6.33837 41.1159C6.39922 41.1489 6.46243 41.1773 6.52749 41.201C6.57039 41.2158 6.61415 41.228 6.65852 41.2375C6.68959 41.2456 6.72606 41.2503 6.75713 41.2557L6.84088 41.2638C6.86858 41.2638 6.89694 41.2638 6.92599 41.2638C7.8986 41.2638 8.30386 40.1899 8.43827 39.8367L8.47001 39.7401C8.47001 39.7401 8.47001 39.7401 8.47001 39.7333C8.47173 39.7248 8.47398 39.7165 8.47677 39.7083C8.48149 39.6827 8.49163 39.6408 8.50108 39.5921C8.50108 39.5705 8.50919 39.5476 8.51459 39.5246C8.52877 39.4503 8.54363 39.3584 8.55849 39.2504C8.5639 39.2173 8.56862 39.1828 8.572 39.147C8.58011 39.091 8.58686 39.0288 8.59294 38.966C8.59294 38.9464 8.59294 38.9282 8.59834 38.9086C8.60442 38.8411 8.60983 38.7789 8.61455 38.71V38.6938C8.61928 38.6263 8.62266 38.5473 8.62604 38.4703C8.62604 38.4507 8.62604 38.4291 8.62604 38.4081C8.62604 38.3257 8.62604 38.242 8.62604 38.1548C8.62604 38.1386 8.62604 38.1224 8.62604 38.1055C8.62604 37.9894 8.62604 37.8691 8.61455 37.7415C8.60307 37.5064 8.57808 37.2552 8.53891 36.9945C8.50784 36.7756 8.46528 36.5507 8.40922 36.319C8.38626 36.2252 8.36329 36.1319 8.33695 36.0367C8.27036 35.7906 8.19077 35.5483 8.09853 35.3106C8.0607 35.212 8.02153 35.1141 7.97898 35.0155C7.95601 34.9641 7.9344 34.9135 7.91143 34.8642C7.86753 34.7656 7.81958 34.6656 7.76689 34.5656C7.63502 34.3053 7.48867 34.0525 7.32854 33.8085C6.04523 31.6214 4.22698 27.4784 4.92132 25.8317C5.17258 25.2508 5.65686 24.674 5.89664 24.674C5.99187 24.674 6.24516 24.8057 6.593 25.3028C6.71458 25.469 7.12051 25.9566 7.74123 25.9566C7.95128 25.9566 8.65778 25.8823 8.94619 24.9435C8.99414 24.8023 10.0613 21.5664 9.49328 18.6816C9.87085 19.5826 10.216 20.5958 10.2484 21.3158L11.3291 21.3273C11.612 22.4801 12.0451 23.5907 12.6171 24.6308C12.7434 24.8638 12.8873 25.0867 13.0345 25.3103C13.1673 25.5034 13.29 25.7034 13.402 25.9094C13.9336 26.9214 14.3147 28.0056 14.5333 29.1278C14.5543 29.2565 14.5674 29.3865 14.5725 29.5168C14.6272 30.2179 14.7157 31.3891 15.77 31.8133C15.9429 31.8846 16.1281 31.9216 16.3151 31.922C17.1898 31.922 17.7565 31.15 17.9307 30.3847C18.0312 29.9084 18.0765 29.422 18.0658 28.9353C18.0658 28.7941 18.082 24.9435 15.739 20.745C15.5796 20.3479 14.3482 17.0869 15.358 14.1488C15.5843 13.6085 16.0854 12.9783 16.3104 12.9783C16.3576 12.9783 16.5056 13.0425 16.721 13.2856L17.5633 14.2393L18.2272 13.1485C18.447 12.7633 18.6338 12.3602 18.7858 11.9436C18.6704 13.05 18.4506 14.1429 18.1293 15.2079C17.0209 18.9612 16.9135 22.26 17.8186 25.0171L17.8726 25.1826C18.1043 25.91 18.4575 27.0103 19.4653 27.4635C19.7103 27.5753 19.9761 27.6347 20.2454 27.6378C21.168 27.6378 21.8975 26.882 22.1008 25.7115C22.1123 25.677 22.5587 23.8297 22.1075 21.2536C22.2906 21.5942 22.5091 21.9146 22.7593 22.2094L22.912 22.3917L23.1355 22.4789C23.3357 22.553 23.5476 22.5903 23.761 22.589C24.1993 22.589 25.255 22.4215 25.7197 20.9004C25.9676 20.3918 26.9787 18.0636 26.4877 14.7858L26.4762 14.7121L26.4532 14.6399C26.4485 14.6216 26.2135 13.8793 25.9885 12.8162C26.0297 12.9574 26.1432 13.312 26.1432 13.312L26.1675 13.3647C26.1891 13.4072 28.1627 17.655 27.3158 20.6437C26.9591 21.9048 26.4026 23.2266 25.6637 24.5693C25.4914 24.8827 25.2929 25.1819 25.0956 25.4805C24.7579 25.9931 24.4108 26.522 24.15 27.1359C23.8683 27.7985 23.6404 28.4827 23.4685 29.1818C23.122 30.5934 22.7512 33.1864 24.1581 34.6919C24.5492 35.1107 24.9626 35.1992 25.2422 35.1992C25.5799 35.1992 26.229 35.0641 26.7227 34.1502C27.1631 33.3397 27.1874 32.4617 27.1678 31.8747C27.1571 31.5658 27.1307 31.2577 27.0888 30.9514C27.1368 31.0372 27.1861 31.121 27.2367 31.2013C28.0351 32.4846 28.6308 34.1057 29.0104 36.0158C29.2617 37.2849 29.1529 38.5196 28.6984 39.5867C28.6788 39.6327 28.6592 39.6786 28.6409 39.7218C28.6227 39.7651 28.6079 39.8056 28.593 39.8468C28.5781 39.888 28.5572 39.944 28.5403 39.9913C28.5194 40.0535 28.4978 40.1163 28.4802 40.1784C28.4626 40.2406 28.4403 40.3047 28.4241 40.3675C28.4127 40.4101 28.4012 40.4526 28.391 40.4952C28.3809 40.5377 28.3701 40.5823 28.362 40.6249C28.3323 40.7568 28.3098 40.8867 28.2945 41.0146C28.2863 41.0734 28.2782 41.1328 28.2735 41.1902C28.2587 41.3395 28.2506 41.4874 28.2506 41.6333C28.2506 41.7008 28.2506 41.7684 28.2553 41.8359C28.2553 41.8785 28.26 41.9197 28.2634 41.9622C28.28 42.1775 28.3145 42.391 28.3667 42.6005C28.3802 42.6599 28.3964 42.7173 28.4147 42.7748C28.4356 42.8518 28.462 42.9294 28.4903 43.0064C28.5891 43.2719 28.7156 43.5261 28.8679 43.7649C28.8875 43.7947 28.9071 43.8257 28.9287 43.8554C28.9503 43.8852 28.9712 43.9162 28.9962 43.9473C29.0799 44.0613 29.1733 44.168 29.2752 44.2661C29.2838 44.2762 29.2933 44.2854 29.3035 44.2938C29.3427 44.3316 29.3853 44.3661 29.4278 44.4005C29.4536 44.4215 29.4804 44.4411 29.5082 44.4593C29.5115 44.4631 29.5157 44.4661 29.5204 44.468C29.5897 44.5175 29.6631 44.5609 29.7399 44.5977C29.7851 44.6213 29.8318 44.6421 29.8797 44.6599C29.9013 44.668 29.9222 44.6747 29.9438 44.6815C29.9655 44.6882 29.9749 44.6909 29.9898 44.6957C30.0046 44.7004 30.0357 44.7092 30.0573 44.7139C30.1205 44.7291 30.1845 44.7402 30.2491 44.747L30.3052 44.7517C30.3363 44.7517 30.3694 44.7517 30.4018 44.7517C30.6892 44.7501 30.9702 44.6669 31.2123 44.512C31.422 44.3839 31.6109 44.2245 31.7722 44.0392C31.7837 44.233 31.7851 44.4208 31.779 44.6153V44.6153Z" fill="#FF8A00"/>
<path d="M23.715 44.1537C23.7176 44.2704 23.7122 44.3871 23.6988 44.5029C23.6667 44.8773 23.5866 45.2459 23.4603 45.5998C23.3171 45.9497 22.9679 46.2672 22.872 46.6015C22.7923 46.8872 22.9517 47.2371 23.0152 47.539C23.0791 47.9599 23.1109 48.3851 23.1105 48.8108V55.661L20.1068 52.4824V49.3032C20.1068 48.5319 19.9137 47.7119 19.3551 47.1486C18.7533 46.5407 17.7847 46.4178 17.0235 46.7825C16.084 47.2317 15.7355 48.3265 15.7355 49.3032V52.4824L12.7312 55.661V48.8108C12.728 48.3843 12.7653 47.9584 12.8426 47.539C12.8906 47.2371 13.0655 46.8872 12.9696 46.6015C12.8744 46.2638 12.5245 45.9497 12.3813 45.5998C12.2553 45.2459 12.1754 44.8773 12.1436 44.5029V44.0106C12.1436 43.327 12.3023 42.6597 12.4772 42.0072C12.6204 41.4986 13.1128 39.9256 13.4465 39.5122C13.1763 40.4814 13.0338 42.6117 13.5734 43.4378C13.6915 43.6422 13.83 43.8341 13.9868 44.0106C14.0858 44.1285 14.1977 44.235 14.3205 44.328C14.5974 44.5259 14.7257 44.4232 14.9959 44.2814C15.3336 44.1058 15.7125 44.0112 16.0847 43.9261C17.5031 43.6114 19.3794 43.6012 20.7235 44.2172C21.1051 44.3915 21.1848 44.5982 21.534 44.328C21.6555 44.2389 21.7628 44.1319 21.8521 44.0106C22.009 43.8341 22.1475 43.6422 22.2655 43.4378C22.8058 42.6117 22.6626 40.4814 22.3925 39.5122C22.7261 39.9256 23.2192 41.4986 23.3624 42.0072C23.5366 42.659 23.696 43.327 23.696 44.0106C23.7104 44.0569 23.7168 44.1053 23.715 44.1537Z" fill="#FFE8CC"/>
</svg>
